<svg version="1.1" id="Layer_1" xmlns="http://www.w3.org/2000/svg" xmlns:xlink="http://www.w3.org/1999/xlink" x="0px" y="0px"
	 width="100%" viewBox="0 0 4096 4096" enable-background="new 0 0 4096 4096" xml:space="preserve">
<path fill="#FFFFFF" opacity="1.000000" stroke="none" 
	d="
M2806.000000,4098.000000 
	C1870.666626,4098.000000 936.333313,4098.000000 2.000000,4098.000000 
	C2.000000,2732.666748 2.000000,1367.333374 2.000000,2.000000 
	C1367.333374,2.000000 2732.666748,2.000000 4098.000000,2.000000 
	C4098.000000,1367.333374 4098.000000,2732.666748 4098.000000,4098.000000 
	C3667.666748,4098.000000 3237.333252,4098.000000 2806.000000,4098.000000 
M2448.048828,425.044067 
	C2426.567627,417.906891 2405.254150,410.208527 2383.574951,403.733582 
	C2306.694580,380.771454 2228.251221,366.106171 2148.145996,360.629028 
	C2053.827148,354.180084 1960.317383,360.623535 1867.654541,378.958221 
	C1791.895142,393.948303 1718.747192,417.469452 1647.998169,448.399292 
	C1568.221558,483.275848 1494.090698,527.718567 1425.052490,580.695923 
	C1375.488159,618.729675 1329.494385,660.732849 1287.505615,706.970520 
	C1231.954224,768.143555 1184.005249,834.828369 1143.956543,907.198486 
	C1115.823608,958.035950 1091.546631,1010.620178 1072.069092,1065.312012 
	C1036.178711,1166.090332 1015.406372,1269.993408 1010.536743,1376.900146 
	C1007.283264,1448.326172 1011.271362,1519.432251 1022.274109,1590.124512 
	C1033.635986,1663.123169 1052.698486,1734.056274 1078.548218,1803.237305 
	C1108.208008,1882.615479 1147.420776,1957.026123 1195.035278,2026.994873 
	C1245.526978,2101.191406 1304.378784,2168.112061 1372.036377,2227.169922 
	C1439.642822,2286.183105 1513.407715,2336.070312 1593.329346,2376.964355 
	C1667.539795,2414.935547 1745.246094,2443.380615 1826.124023,2463.122070 
	C1891.341919,2479.041016 1957.607910,2488.648682 2024.656616,2491.796387 
	C2098.080322,2495.243408 2171.190430,2491.379639 2243.848633,2479.696777 
	C2294.915039,2471.486328 2345.202881,2459.952881 2394.534424,2444.502686 
	C2483.066162,2416.775635 2566.483398,2377.935791 2644.999023,2328.460205 
	C2727.269043,2276.618652 2801.354736,2215.057373 2866.661621,2143.002441 
	C2926.712402,2076.746338 2977.648682,2004.055908 3019.650146,1925.115112 
	C3059.426758,1850.354736 3089.329590,1771.743530 3110.368652,1689.792725 
	C3129.321289,1615.968628 3139.904785,1540.891479 3142.888672,1464.698120 
	C3146.244141,1379.009399 3138.743652,1294.247803 3121.636230,1210.332275 
	C3108.161377,1144.234985 3088.638916,1079.848267 3062.661865,1017.605591 
	C3031.636230,943.266235 2993.140625,872.946838 2946.297363,807.264526 
	C2910.793701,757.482117 2871.597656,710.840088 2828.098145,667.913269 
	C2768.075195,608.680725 2701.982910,557.116394 2629.861816,513.349304 
	C2572.459473,478.514465 2512.395264,449.138580 2448.048828,425.044067 
M1784.832275,3045.439941 
	C1747.862671,3045.586670 1710.893188,3045.732422 1673.923706,3045.898438 
	C1673.623047,3045.899658 1673.288086,3046.126465 1673.034546,3046.329590 
	C1672.794556,3046.521973 1672.640381,3046.821533 1672.448364,3047.073730 
	C1670.857544,3060.872314 1671.313232,3074.738525 1673.765137,3081.864746 
	C1683.869873,3081.864746 1694.172974,3081.864746 1704.476074,3081.864746 
	C1714.806274,3081.864746 1725.137451,3081.770264 1735.466187,3081.891357 
	C1745.639771,3082.010986 1755.868530,3081.345947 1765.532715,3082.285889 
	C1766.119019,3084.250488 1766.471313,3084.887207 1766.475464,3085.526123 
	C1766.547729,3096.521729 1766.602295,3107.517334 1766.610352,3118.513184 
	C1766.627563,3141.916748 1766.098633,3142.803711 1745.709595,3154.312012 
	C1744.839600,3154.802979 1743.964966,3155.289062 1743.070190,3155.732422 
	C1711.418945,3171.410889 1678.035889,3177.333984 1643.091797,3172.121338 
	C1601.959106,3165.985596 1573.977295,3142.781006 1558.595093,3104.335938 
	C1552.731445,3089.680420 1549.989746,3074.280518 1549.097290,3058.549805 
	C1547.613281,3032.389404 1549.056030,3006.547119 1558.704834,2981.824219 
	C1571.038696,2950.221924 1593.275635,2928.966553 1626.421631,2920.844482 
	C1648.620239,2915.405029 1671.306885,2915.211670 1693.855713,2920.005127 
	C1719.927368,2925.547363 1740.506836,2938.894287 1754.219604,2962.146729 
	C1755.515625,2964.344238 1757.258667,2966.278564 1759.080688,2968.718506 
	C1772.415283,2964.699951 1785.302612,2960.816406 1797.804077,2957.049072 
	C1797.804077,2955.177734 1798.018677,2954.435303 1797.773438,2953.906006 
	C1782.793701,2921.575684 1758.648071,2899.531982 1724.178223,2889.775391 
	C1686.207764,2879.028076 1647.786133,2878.239014 1609.626709,2888.260498 
	C1558.981323,2901.561035 1526.150146,2934.019043 1512.243164,2984.415771 
	C1500.916992,3025.459961 1501.284668,3066.910400 1514.033813,3107.664795 
	C1528.440552,3153.718018 1558.780762,3184.784180 1604.821899,3199.947266 
	C1637.855713,3210.826660 1671.644775,3211.525635 1705.590454,3205.731689 
	C1741.498535,3199.602539 1773.555542,3184.973145 1800.835693,3160.411621 
	C1804.538330,3157.078613 1806.700928,3153.769775 1806.667725,3148.508057 
	C1806.465454,3116.519287 1806.591675,3084.528320 1806.514648,3052.538330 
	C1806.509399,3050.361572 1805.741333,3048.186279 1805.219971,3045.441162 
	C1798.705811,3045.441162 1792.736450,3045.441162 1784.832275,3045.439941 
M2869.000000,2886.440186 
	C2816.111084,2886.440186 2763.222168,2886.440186 2709.887207,2886.440186 
	C2709.887207,2993.007080 2709.887207,3098.401611 2709.887207,3203.981934 
	C2793.437012,3203.981934 2876.277100,3203.981934 2959.422119,3203.981934 
	C2959.422119,3192.468750 2959.422119,3181.567139 2959.422119,3169.476562 
	C2890.466064,3169.476562 2821.973145,3169.476562 2753.721924,3169.476562 
	C2751.529785,3158.052490 2751.944580,3066.085693 2754.309570,3057.941406 
	C2814.758545,3057.941406 2875.540039,3057.941406 2936.994385,3057.941406 
	C2937.030762,3046.042480 2937.813721,3035.256836 2936.494873,3023.917480 
	C2923.201172,3023.917480 2910.897705,3023.917236 2898.594482,3023.917236 
	C2886.596191,3023.917236 2874.597900,3023.917236 2862.599609,3023.917236 
	C2850.268066,3023.917236 2837.936523,3023.917236 2825.604980,3023.917236 
	C2813.606689,3023.917236 2801.608398,3023.949219 2789.610107,3023.908447 
	C2777.435547,3023.867188 2765.245605,3024.095703 2753.001465,3023.751953 
	C2753.001465,2989.121094 2753.001465,2955.964600 2753.001465,2921.773926 
	C2766.544434,2921.773926 2779.462891,2921.773926 2792.381592,2921.773926 
	C2805.713135,2921.773926 2819.044434,2921.773926 2832.375977,2921.773926 
	C2845.374023,2921.773926 2858.372314,2921.773926 2871.370361,2921.773926 
	C2884.701904,2921.773926 2898.033203,2921.796631 2911.364746,2921.767578 
	C2924.196045,2921.739502 2937.036865,2921.896973 2950.402832,2921.653809 
	C2950.488770,2909.130615 2951.187988,2898.019531 2949.977295,2886.440186 
	C2922.947266,2886.440186 2896.973633,2886.440186 2869.000000,2886.440186 
M2330.065186,2985.000000 
	C2330.065186,3057.869385 2330.065186,3130.739014 2330.065186,3204.026367 
	C2344.791016,3204.026367 2358.624756,3204.026367 2373.434082,3204.026367 
	C2373.434082,3189.885986 2373.434082,3176.307617 2373.434082,3162.729492 
	C2373.434082,3149.074951 2373.343018,3135.419434 2373.459961,3121.765869 
	C2373.575439,3108.289795 2372.922363,3094.769775 2373.956787,3080.625732 
	C2378.264404,3080.625732 2381.225586,3080.625732 2384.186768,3080.625488 
	C2409.830811,3080.625000 2435.480225,3080.931152 2461.116699,3080.490723 
	C2473.388672,3080.279785 2485.896240,3079.910156 2497.847412,3077.438477 
	C2536.539795,3069.436035 2563.497559,3047.754395 2573.428467,3008.169189 
	C2576.858398,2994.497314 2577.113037,2980.511719 2575.237793,2966.488281 
	C2570.623291,2931.986328 2552.082764,2908.634521 2519.758057,2895.740479 
	C2501.734375,2888.551270 2482.937256,2886.659668 2463.914062,2886.528320 
	C2421.953369,2886.238281 2379.989014,2886.415527 2338.026123,2886.462891 
	C2335.516113,2886.465576 2333.006836,2887.002441 2330.065186,2887.340332 
	C2330.065186,2919.762695 2330.065186,2951.381348 2330.065186,2985.000000 
M1331.518921,3117.345947 
	C1342.900513,3146.402344 1354.282104,3175.458496 1365.696289,3204.598145 
	C1373.679443,3204.598145 1380.664429,3204.880859 1387.615845,3204.519043 
	C1394.661377,3204.152588 1401.954346,3206.147949 1409.219238,3203.063232 
	C1366.670654,3097.218750 1324.344604,2991.927490 1282.119629,2886.887695 
	C1265.141724,2886.887695 1249.229858,2886.887695 1232.760864,2886.887695 
	C1189.695190,2992.356201 1146.708618,3097.630615 1103.302979,3203.931641 
	C1119.159790,3203.931641 1133.588745,3203.931641 1148.104614,3203.931641 
	C1160.295410,3173.095947 1172.271484,3142.802979 1184.527466,3111.802490 
	C1188.555176,3111.802490 1192.167725,3111.802490 1195.780273,3111.802490 
	C1219.767578,3111.802490 1243.754883,3111.802734 1267.742188,3111.802490 
	C1285.732666,3111.802246 1303.723022,3111.801270 1321.713501,3111.801025 
	C1325.349487,3111.801025 1329.254395,3111.190186 1331.518921,3117.345947 
M1946.614380,3123.361816 
	C1935.755859,3149.980713 1924.897339,3176.599609 1913.662109,3204.141602 
	C1929.536743,3204.141602 1943.730103,3204.141602 1958.387695,3204.141602 
	C1970.577026,3173.353760 1982.676025,3142.793945 1994.750488,3112.296387 
	C2043.519043,3112.296387 2091.398926,3112.296387 2139.808594,3112.296387 
	C2151.937500,3143.106201 2163.973389,3173.678955 2175.815430,3203.760254 
	C2192.219971,3205.602051 2212.772705,3205.014648 2219.177734,3202.600342 
	C2218.491943,3200.738281 2217.851562,3198.856201 2217.112305,3197.013672 
	C2197.637939,3148.492676 2178.156982,3099.974609 2158.670166,3051.458740 
	C2137.693115,2999.233398 2116.719971,2947.006836 2095.715576,2894.792480 
	C2092.370361,2886.477051 2092.298340,2886.470703 2083.511230,2886.439697 
	C2072.849121,2886.402100 2062.163818,2886.853760 2051.533203,2886.277344 
	C2044.981812,2885.922363 2042.280640,2888.696289 2039.978271,2894.375000 
	C2009.200073,2970.292725 1978.204712,3046.122314 1946.614380,3123.361816 
M1207.165771,3586.306885 
	C1192.927124,3616.770508 1192.429443,3648.240234 1202.179077,3679.718262 
	C1210.035645,3705.084473 1226.338013,3723.760742 1251.609741,3733.821533 
	C1272.012817,3741.944092 1293.129150,3743.402100 1314.422974,3739.605957 
	C1346.515991,3733.884766 1369.973877,3716.597168 1382.189453,3685.636719 
	C1392.571045,3659.324951 1393.069946,3632.260254 1386.292725,3605.244385 
	C1379.607178,3578.594238 1363.807739,3559.103516 1337.991455,3547.909424 
	C1320.929443,3540.510742 1303.277222,3539.185303 1285.200073,3540.095459 
	C1251.765625,3541.778564 1224.750122,3554.713623 1207.165771,3586.306885 
M3120.972900,3626.530518 
	C3093.079102,3626.530518 3065.185303,3626.530518 3035.960449,3626.530518 
	C3035.960449,3617.375244 3035.959229,3609.479736 3035.960938,3601.583984 
	C3035.963379,3591.584717 3036.069580,3581.583740 3035.929199,3571.586426 
	C3035.859863,3566.642334 3037.729004,3564.019043 3042.922607,3564.249512 
	C3045.250732,3564.353027 3047.588135,3564.247314 3049.921143,3564.247070 
	C3082.252441,3564.245850 3114.583740,3564.267578 3146.915039,3564.215088 
	C3150.400879,3564.209473 3153.886230,3563.774658 3157.020508,3563.562744 
	C3157.020508,3555.801758 3157.020508,3549.365967 3157.020508,3543.064453 
	C3137.899902,3540.900391 3016.636475,3541.830811 3009.750488,3544.080811 
	C3007.711670,3554.018555 3008.067871,3730.136963 3010.197266,3737.541016 
	C3060.980713,3737.541016 3111.817627,3737.541016 3163.260010,3737.541016 
	C3163.720703,3730.142578 3165.032715,3723.389648 3162.140869,3716.170898 
	C3151.628906,3716.170898 3141.318115,3716.170654 3131.007080,3716.170654 
	C3120.341064,3716.170654 3109.675049,3716.170654 3099.009033,3716.170654 
	C3088.676270,3716.170654 3078.340576,3716.329102 3068.011963,3716.126465 
	C3057.534912,3715.920654 3046.958252,3717.073486 3036.008057,3715.233887 
	C3036.008057,3694.248779 3036.014648,3674.277588 3036.002930,3654.306396 
	C3036.000488,3650.146240 3038.139893,3648.239502 3042.187988,3648.232178 
	C3044.520996,3648.227783 3046.854248,3648.192871 3049.187256,3648.192627 
	C3078.852051,3648.189453 3108.516846,3648.208496 3138.181641,3648.166992 
	C3141.719727,3648.162109 3145.257568,3647.834229 3149.179199,3647.636719 
	C3149.179199,3640.483643 3149.179199,3634.338623 3149.179199,3627.860352 
	C3140.164551,3625.294189 3131.486084,3627.084473 3120.972900,3626.530518 
M2020.936035,3626.530518 
	C2006.274658,3626.530518 1991.613037,3626.596191 1976.952148,3626.512207 
	C1962.109863,3626.427246 1947.241333,3626.897217 1932.230957,3626.178223 
	C1932.230957,3605.017578 1932.230957,3585.228760 1932.230957,3564.329590 
	C1972.453369,3564.329590 2011.959961,3564.329590 2051.430908,3564.329590 
	C2054.326416,3556.576904 2054.209961,3549.931641 2051.877686,3542.950195 
	C2002.751953,3542.950195 1953.962769,3542.950195 1904.701660,3542.950195 
	C1904.701660,3608.084717 1904.701660,3672.518066 1904.701660,3736.814697 
	C1915.397095,3738.999023 2050.250244,3738.643555 2057.539062,3736.539307 
	C2057.539062,3730.078857 2057.539062,3723.620605 2057.539062,3716.330078 
	C2015.330200,3715.866699 1973.875732,3716.507324 1932.707397,3715.973145 
	C1930.632690,3702.977783 1931.130005,3656.310791 1933.482300,3648.190674 
	C1936.753174,3648.190674 1940.343262,3648.190430 1943.933228,3648.190430 
	C1972.256104,3648.190430 2000.579102,3648.190430 2028.901978,3648.190430 
	C2046.473755,3648.190430 2046.767456,3647.883057 2045.071411,3630.294434 
	C2044.984863,3629.397461 2044.211426,3628.566895 2043.139526,3626.531250 
	C2036.729980,3626.531250 2029.819214,3626.531250 2020.936035,3626.530518 
M964.268188,3714.706543 
	C1007.655273,3759.215088 1098.752319,3745.955811 1117.850342,3688.748779 
	C1113.625000,3686.527344 1109.348755,3684.056641 1104.887085,3681.985596 
	C1097.856201,3678.721680 1097.566406,3678.843506 1093.077515,3685.789795 
	C1078.089355,3708.983643 1057.724731,3720.915039 1029.265625,3718.371582 
	C1003.137024,3716.036377 984.861511,3702.970703 974.317749,3679.690430 
	C965.149841,3659.447754 964.124146,3637.954590 968.555054,3616.155029 
	C971.191833,3603.182373 975.835083,3591.275391 985.094849,3581.551514 
	C1002.628906,3563.137695 1024.603516,3559.372070 1048.476685,3563.076904 
	C1065.433350,3565.708496 1078.976318,3574.141357 1088.137939,3589.017822 
	C1089.651855,3591.476318 1091.432495,3593.770508 1093.313110,3596.459717 
	C1101.313721,3593.654053 1108.686646,3591.068359 1116.815186,3588.217773 
	C1108.171509,3567.239746 1094.138184,3553.172852 1074.063477,3546.115479 
	C1049.205322,3537.376465 1023.595581,3536.943115 998.481750,3544.839111 
	C982.776672,3549.776855 968.851501,3558.371582 958.669189,3572.029541 
	C947.422974,3587.114258 941.378479,3603.974365 939.456421,3622.682129 
	C936.024414,3656.087402 941.274719,3687.025391 964.268188,3714.706543 
M2302.447998,3593.445801 
	C2306.999512,3591.754395 2311.550781,3590.063232 2316.803467,3588.111328 
	C2307.784912,3566.598145 2293.233643,3552.305176 2272.210693,3545.455566 
	C2248.227539,3537.640869 2223.637695,3537.013428 2199.532227,3544.577637 
	C2178.579102,3551.153076 2161.340088,3563.284668 2151.210449,3583.661377 
	C2134.888428,3616.494873 2134.453369,3650.172119 2146.256836,3684.370605 
	C2155.646973,3711.576172 2174.635986,3728.714355 2202.034912,3736.890625 
	C2215.596924,3740.937744 2229.266113,3741.666504 2243.412842,3740.461182 
	C2262.209961,3738.860107 2279.210449,3733.341553 2294.060059,3721.705566 
	C2304.910156,3713.203125 2313.056885,3702.621826 2318.640137,3689.071777 
	C2313.820068,3686.552734 2309.812744,3684.292480 2305.665527,3682.326660 
	C2297.904785,3678.648438 2297.642090,3678.735596 2292.997803,3685.912598 
	C2286.398193,3696.111084 2278.285156,3704.784912 2267.863037,3711.149658 
	C2255.903564,3718.452637 2242.706055,3719.065918 2229.233643,3718.223877 
	C2203.051270,3716.587158 2184.955322,3702.869385 2174.301270,3679.695801 
	C2164.529541,3658.441406 2164.059082,3635.970703 2169.121338,3613.296387 
	C2171.778809,3601.392578 2176.566895,3590.563477 2185.046387,3581.624512 
	C2202.532471,3563.190918 2224.497559,3559.283203 2248.346436,3563.071289 
	C2267.577148,3566.125977 2282.335449,3576.021240 2290.826660,3594.141357 
	C2291.078369,3594.678467 2291.788818,3595.000732 2292.970703,3596.006348 
	C2295.301270,3595.380127 2298.114502,3594.624268 2302.447998,3593.445801 
M2887.262695,3582.206055 
	C2881.700684,3596.462158 2876.168213,3610.729492 2870.568604,3624.970947 
	C2864.968018,3639.215332 2859.494385,3653.514160 2853.605957,3667.639648 
	C2847.879639,3681.375488 2845.140869,3696.340820 2837.287598,3710.878662 
	C2835.802490,3707.899414 2835.111572,3706.770264 2834.651611,3705.553711 
	C2823.000244,3674.749756 2811.491211,3643.891602 2799.701904,3613.140625 
	C2791.483154,3591.703857 2782.960205,3570.381836 2774.359375,3549.094971 
	C2773.347656,3546.591064 2771.145020,3542.916992 2769.206543,3542.727051 
	C2761.161133,3541.939453 2752.965576,3541.674316 2744.086182,3542.943115 
	C2745.653320,3547.263916 2746.667480,3550.379395 2747.899414,3553.406006 
	C2760.943848,3585.456055 2774.029785,3617.489014 2787.089844,3649.532471 
	C2798.141357,3676.647217 2809.335205,3703.705811 2820.083252,3730.940430 
	C2822.293701,3736.541992 2825.240723,3738.726318 2831.173828,3738.302979 
	C2837.743164,3737.834229 2844.372070,3738.195801 2850.375000,3738.195801 
	C2859.246094,3722.428467 2928.445068,3550.709717 2929.162109,3542.249023 
	C2922.860596,3542.249023 2916.585205,3542.551514 2910.353760,3542.158936 
	C2904.848877,3541.811768 2901.904297,3543.709473 2900.050781,3549.102539 
	C2896.377197,3559.791748 2891.965332,3570.227539 2887.262695,3582.206055 
M2456.283447,3734.261230 
	C2457.229004,3735.468262 2458.137451,3737.685303 2459.125977,3737.721680 
	C2466.949707,3738.009521 2474.788818,3737.882080 2483.576904,3737.882080 
	C2483.576904,3717.696045 2483.576904,3698.770020 2483.576904,3679.844238 
	C2483.576904,3660.851562 2483.544189,3641.858643 2483.585938,3622.865967 
	C2483.627441,3604.007568 2483.394775,3585.139160 2483.753662,3565.285156 
	C2495.763916,3565.285156 2506.362305,3565.441406 2516.954102,3565.241699 
	C2527.748047,3565.038086 2538.653320,3566.206543 2550.125000,3564.322998 
	C2550.125000,3558.456543 2550.189697,3553.836914 2550.094238,3549.220215 
	C2550.054688,3547.297363 2549.674072,3545.381592 2549.467773,3543.625977 
	C2539.101074,3541.400879 2397.182617,3541.763184 2388.502930,3544.325928 
	C2388.502930,3547.812988 2388.449463,3551.712158 2388.513672,3555.608887 
	C2388.657471,3564.319092 2389.344482,3565.153320 2398.398438,3565.239746 
	C2414.057617,3565.389160 2429.719727,3565.251465 2445.380127,3565.312256 
	C2448.595947,3565.324707 2451.810303,3565.679199 2456.196289,3565.947998 
	C2456.196289,3621.962646 2456.196289,3677.180176 2456.283447,3734.261230 
M1484.177124,3542.504639 
	C1478.962158,3544.532471 1480.618408,3549.141357 1480.612305,3552.819336 
	C1480.515137,3611.396240 1480.534790,3669.972900 1480.570312,3728.549805 
	C1480.572144,3731.443115 1480.960327,3734.336670 1481.192261,3737.559082 
	C1523.390747,3737.559082 1564.814453,3737.559082 1607.371948,3737.559082 
	C1607.371948,3731.729492 1607.441772,3726.498535 1607.345947,3721.270264 
	C1607.287964,3718.102539 1605.482056,3716.406738 1602.322510,3716.276611 
	C1599.996338,3716.181152 1597.665405,3716.177979 1595.336548,3716.177246 
	C1570.041992,3716.170654 1544.747437,3716.194336 1519.452881,3716.148438 
	C1515.923706,3716.142090 1512.395020,3715.808105 1507.777832,3715.569580 
	C1507.777832,3657.545166 1507.777832,3600.484619 1507.777832,3542.301758 
	C1499.761963,3542.301758 1492.861206,3542.301758 1484.177124,3542.504639 
M1784.996704,3738.195068 
	C1795.806030,3737.824463 1806.703369,3739.000732 1817.197266,3737.474121 
	C1817.197266,3729.892334 1817.197266,3723.447998 1817.197266,3715.973877 
	C1784.521851,3715.973877 1752.711792,3715.973877 1719.540771,3715.973877 
	C1719.540771,3711.082275 1719.540771,3707.196045 1719.540771,3703.309814 
	C1719.540771,3653.708740 1719.559814,3604.107666 1719.502930,3554.506592 
	C1719.498535,3550.675537 1718.959595,3546.844727 1718.611084,3542.249756 
	C1713.537842,3542.249756 1709.583740,3542.192383 1705.632080,3542.265625 
	C1701.427124,3542.343506 1697.224365,3542.544922 1692.781250,3542.700928 
	C1692.781250,3608.174805 1692.781250,3672.570068 1692.781250,3738.195557 
	C1723.276733,3738.195557 1753.137085,3738.195557 1784.996704,3738.195068 
M2660.239990,3738.034180 
	C2665.319092,3736.373291 2663.548584,3732.031738 2663.554443,3728.733398 
	C2663.658203,3669.440918 2663.639404,3610.147949 2663.596924,3550.855225 
	C2663.594971,3548.303223 2663.109863,3545.751953 2662.817383,3542.878662 
	C2653.738281,3542.024658 2645.306885,3541.484375 2636.889160,3543.228271 
	C2636.889160,3608.344971 2636.889160,3672.780518 2636.889160,3738.187744 
	C2644.549805,3738.187744 2651.476807,3738.187744 2660.239990,3738.034180 
z"/>
<path fill="#1E3A5F" opacity="1.000000" stroke="none" 
	d="
M2448.771973,425.320801 
	C2512.395264,449.138580 2572.459473,478.514465 2629.861816,513.349304 
	C2701.982910,557.116394 2768.075195,608.680725 2828.098145,667.913269 
	C2871.597656,710.840088 2910.793701,757.482117 2946.297363,807.264526 
	C2993.140625,872.946838 3031.636230,943.266235 3062.661865,1017.605591 
	C3088.638916,1079.848267 3108.161377,1144.234985 3121.636230,1210.332275 
	C3138.743652,1294.247803 3146.244141,1379.009399 3142.888672,1464.698120 
	C3139.904785,1540.891479 3129.321289,1615.968628 3110.368652,1689.792725 
	C3089.329590,1771.743530 3059.426758,1850.354736 3019.650146,1925.115112 
	C2977.648682,2004.055908 2926.712402,2076.746338 2866.661621,2143.002441 
	C2801.354736,2215.057373 2727.269043,2276.618652 2644.999023,2328.460205 
	C2566.483398,2377.935791 2483.066162,2416.775635 2394.534424,2444.502686 
	C2345.202881,2459.952881 2294.915039,2471.486328 2243.848633,2479.696777 
	C2171.190430,2491.379639 2098.080322,2495.243408 2024.656616,2491.796387 
	C1957.607910,2488.648682 1891.341919,2479.041016 1826.124023,2463.122070 
	C1745.246094,2443.380615 1667.539795,2414.935547 1593.329346,2376.964355 
	C1513.407715,2336.070312 1439.642822,2286.183105 1372.036377,2227.169922 
	C1304.378784,2168.112061 1245.526978,2101.191406 1195.035278,2026.994873 
	C1147.420776,1957.026123 1108.208008,1882.615479 1078.548218,1803.237305 
	C1052.698486,1734.056274 1033.635986,1663.123169 1022.274109,1590.124512 
	C1011.271362,1519.432251 1007.283264,1448.326172 1010.536743,1376.900146 
	C1015.406372,1269.993408 1036.178711,1166.090332 1072.069092,1065.312012 
	C1091.546631,1010.620178 1115.823608,958.035950 1143.956543,907.198486 
	C1184.005249,834.828369 1231.954224,768.143555 1287.505615,706.970520 
	C1329.494385,660.732849 1375.488159,618.729675 1425.052490,580.695923 
	C1494.090698,527.718567 1568.221558,483.275848 1647.998169,448.399292 
	C1718.747192,417.469452 1791.895142,393.948303 1867.654541,378.958221 
	C1960.317383,360.623535 2053.827148,354.180084 2148.145996,360.629028 
	C2228.251221,366.106171 2306.694580,380.771454 2383.574951,403.733582 
	C2405.254150,410.208527 2426.567627,417.906891 2448.771973,425.320801 
M2301.487549,1362.246460 
	C2281.529297,1365.959717 2261.398193,1368.930908 2241.645752,1373.529053 
	C2188.374023,1385.929810 2136.440186,1402.797852 2085.451416,1422.528564 
	C2079.075684,1424.995850 2073.711426,1424.830688 2067.372314,1422.457031 
	C2027.139282,1407.392578 1986.576904,1393.295898 1945.025391,1382.193481 
	C1896.000244,1369.093872 1846.553711,1358.680542 1795.569336,1357.461304 
	C1769.769531,1356.844482 1744.285645,1359.100220 1719.422852,1366.283813 
	C1686.249146,1375.868652 1658.921753,1393.792847 1640.312012,1423.484619 
	C1626.245728,1445.927368 1619.278564,1470.823975 1616.224243,1496.919067 
	C1613.073120,1523.840332 1613.973389,1550.769287 1615.972290,1577.734497 
	C1619.748291,1628.670044 1630.311401,1677.893433 1652.221436,1724.300293 
	C1672.777344,1767.838867 1701.969360,1804.519531 1740.065308,1834.050171 
	C1773.882202,1860.263794 1811.723022,1878.677002 1852.117065,1892.277954 
	C1902.357422,1909.194336 1954.230225,1917.796509 2006.863647,1921.355469 
	C2085.931152,1926.702148 2164.719482,1924.434204 2242.613770,1907.991821 
	C2293.139893,1897.326660 2341.433105,1880.822632 2385.535156,1853.276489 
	C2445.638428,1815.735840 2487.621582,1763.575073 2512.318848,1697.271240 
	C2529.845703,1650.216797 2536.872070,1601.309570 2538.610107,1551.419922 
	C2539.646973,1521.652588 2538.322266,1492.117065 2530.140869,1463.258911 
	C2518.815918,1423.312134 2495.365479,1393.249512 2457.519531,1375.197632 
	C2433.974609,1363.967163 2408.668457,1359.979126 2382.973389,1358.094360 
	C2356.259277,1356.135010 2329.716553,1358.612793 2301.487549,1362.246460 
z"/>
<path fill="#243F63" opacity="1.000000" stroke="none" 
	d="
M1785.799683,3045.440430 
	C1792.736450,3045.441162 1798.705811,3045.441162 1805.219971,3045.441162 
	C1805.741333,3048.186279 1806.509399,3050.361572 1806.514648,3052.538330 
	C1806.591675,3084.528320 1806.465454,3116.519287 1806.667725,3148.508057 
	C1806.700928,3153.769775 1804.538330,3157.078613 1800.835693,3160.411621 
	C1773.555542,3184.973145 1741.498535,3199.602539 1705.590454,3205.731689 
	C1671.644775,3211.525635 1637.855713,3210.826660 1604.821899,3199.947266 
	C1558.780762,3184.784180 1528.440552,3153.718018 1514.033813,3107.664795 
	C1501.284668,3066.910400 1500.916992,3025.459961 1512.243164,2984.415771 
	C1526.150146,2934.019043 1558.981323,2901.561035 1609.626709,2888.260498 
	C1647.786133,2878.239014 1686.207764,2879.028076 1724.178223,2889.775391 
	C1758.648071,2899.531982 1782.793701,2921.575684 1797.773438,2953.906006 
	C1798.018677,2954.435303 1797.804077,2955.177734 1797.804077,2957.049072 
	C1785.302612,2960.816406 1772.415283,2964.699951 1759.080688,2968.718506 
	C1757.258667,2966.278564 1755.515625,2964.344238 1754.219604,2962.146729 
	C1740.506836,2938.894287 1719.927368,2925.547363 1693.855713,2920.005127 
	C1671.306885,2915.211670 1648.620239,2915.405029 1626.421631,2920.844482 
	C1593.275635,2928.966553 1571.038696,2950.221924 1558.704834,2981.824219 
	C1549.056030,3006.547119 1547.613281,3032.389404 1549.097290,3058.549805 
	C1549.989746,3074.280518 1552.731445,3089.680420 1558.595093,3104.335938 
	C1573.977295,3142.781006 1601.959106,3165.985596 1643.091797,3172.121338 
	C1678.035889,3177.333984 1711.418945,3171.410889 1743.070190,3155.732422 
	C1743.964966,3155.289062 1744.839600,3154.802979 1745.709595,3154.312012 
	C1766.098633,3142.803711 1766.627563,3141.916748 1766.610352,3118.513184 
	C1766.602295,3107.517334 1766.547729,3096.521729 1766.475464,3085.526123 
	C1766.471313,3084.887207 1766.119019,3084.250488 1765.532715,3082.285889 
	C1755.868530,3081.345947 1745.639771,3082.010986 1735.466187,3081.891357 
	C1725.137451,3081.770264 1714.806274,3081.864746 1704.476074,3081.864746 
	C1694.172974,3081.864746 1683.869873,3081.864746 1673.765137,3081.864746 
	C1671.313232,3074.738525 1670.857544,3060.872314 1672.448486,3047.073730 
	C1672.640381,3046.821533 1672.794556,3046.521973 1673.034546,3046.329590 
	C1673.288086,3046.126465 1673.623047,3045.899658 1673.923706,3045.898438 
	C1710.893188,3045.732422 1747.862671,3045.586670 1785.799683,3045.440430 
z"/>
<path fill="#223E62" opacity="1.000000" stroke="none" 
	d="
M2870.000000,2886.440186 
	C2896.973633,2886.440186 2922.947266,2886.440186 2949.977295,2886.440186 
	C2951.187988,2898.019531 2950.488770,2909.130615 2950.402832,2921.653809 
	C2937.036865,2921.896973 2924.196045,2921.739502 2911.364746,2921.767578 
	C2898.033203,2921.796631 2884.701904,2921.773926 2871.370361,2921.773926 
	C2858.372314,2921.773926 2845.374023,2921.773926 2832.375977,2921.773926 
	C2819.044434,2921.773926 2805.713135,2921.773926 2792.381592,2921.773926 
	C2779.462891,2921.773926 2766.544434,2921.773926 2753.001465,2921.773926 
	C2753.001465,2955.964600 2753.001465,2989.121094 2753.001465,3023.751953 
	C2765.245605,3024.095703 2777.435547,3023.867188 2789.610107,3023.908447 
	C2801.608398,3023.949219 2813.606689,3023.917236 2825.604980,3023.917236 
	C2837.936523,3023.917236 2850.268066,3023.917236 2862.599609,3023.917236 
	C2874.597900,3023.917236 2886.596191,3023.917236 2898.594482,3023.917236 
	C2910.897705,3023.917236 2923.201172,3023.917480 2936.494873,3023.917480 
	C2937.813721,3035.256836 2937.030762,3046.042480 2936.994385,3057.941406 
	C2875.540039,3057.941406 2814.758545,3057.941406 2754.309570,3057.941406 
	C2751.944580,3066.085693 2751.529785,3158.052490 2753.721924,3169.476562 
	C2821.973145,3169.476562 2890.466064,3169.476562 2959.422119,3169.476562 
	C2959.422119,3181.567139 2959.422119,3192.468750 2959.422119,3203.981934 
	C2876.277100,3203.981934 2793.437012,3203.981934 2709.887207,3203.981934 
	C2709.887207,3098.401611 2709.887207,2993.007080 2709.887207,2886.440186 
	C2763.222168,2886.440186 2816.111084,2886.440186 2870.000000,2886.440186 
z"/>
<path fill="#254064" opacity="1.000000" stroke="none" 
	d="
M2330.065186,2984.000000 
	C2330.065186,2951.381348 2330.065186,2919.762695 2330.065186,2887.340332 
	C2333.006836,2887.002441 2335.516113,2886.465576 2338.026123,2886.462891 
	C2379.989014,2886.415527 2421.953369,2886.238281 2463.914062,2886.528320 
	C2482.937256,2886.659668 2501.734375,2888.551270 2519.758057,2895.740479 
	C2552.082764,2908.634521 2570.623291,2931.986328 2575.237793,2966.488281 
	C2577.113037,2980.511719 2576.858398,2994.497314 2573.428467,3008.169189 
	C2563.497559,3047.754395 2536.539795,3069.436035 2497.847412,3077.438477 
	C2485.896240,3079.910156 2473.388672,3080.279785 2461.116699,3080.490723 
	C2435.480225,3080.931152 2409.830811,3080.625000 2384.186768,3080.625488 
	C2381.225586,3080.625732 2378.264404,3080.625732 2373.956787,3080.625732 
	C2372.922363,3094.769775 2373.575439,3108.289795 2373.459961,3121.765869 
	C2373.343018,3135.419434 2373.434082,3149.074951 2373.434082,3162.729492 
	C2373.434082,3176.307617 2373.434082,3189.885986 2373.434082,3204.026367 
	C2358.624756,3204.026367 2344.791016,3204.026367 2330.065186,3204.026367 
	C2330.065186,3130.739014 2330.065186,3057.869385 2330.065186,2984.000000 
M2486.159668,3043.785400 
	C2505.266602,3039.895508 2520.412598,3030.499756 2527.699219,3011.703613 
	C2533.610107,2996.456055 2533.978271,2980.549805 2530.588623,2964.537842 
	C2528.219971,2953.348145 2522.735840,2943.990234 2513.948975,2936.821533 
	C2501.884277,2926.978760 2487.572510,2922.453369 2472.270020,2922.126465 
	C2441.301514,2921.464600 2410.318604,2921.474121 2379.341309,2921.260010 
	C2377.767090,2921.249023 2376.189453,2921.740967 2374.166504,2922.072021 
	C2374.166504,2963.577637 2374.166504,3004.613037 2374.166504,3045.993408 
	C2376.820068,3046.213379 2378.768555,3046.513428 2380.717773,3046.515137 
	C2407.370850,3046.538574 2434.026123,3046.701660 2460.676025,3046.402832 
	C2468.623047,3046.313477 2476.555176,3044.900635 2486.159668,3043.785400 
z"/>
<path fill="#233F63" opacity="1.000000" stroke="none" 
	d="
M1331.191895,3116.579102 
	C1329.254395,3111.190186 1325.349487,3111.801025 1321.713501,3111.801025 
	C1303.723022,3111.801270 1285.732666,3111.802246 1267.742188,3111.802490 
	C1243.754883,3111.802734 1219.767578,3111.802490 1195.780273,3111.802490 
	C1192.167725,3111.802490 1188.555176,3111.802490 1184.527466,3111.802490 
	C1172.271484,3142.802979 1160.295410,3173.095947 1148.104614,3203.931641 
	C1133.588745,3203.931641 1119.159790,3203.931641 1103.302979,3203.931641 
	C1146.708618,3097.630615 1189.695190,2992.356201 1232.760864,2886.887695 
	C1249.229858,2886.887695 1265.141724,2886.887695 1282.119629,2886.887695 
	C1324.344604,2991.927490 1366.670654,3097.218750 1409.219238,3203.063232 
	C1401.954346,3206.147949 1394.661377,3204.152588 1387.615845,3204.519043 
	C1380.664429,3204.880859 1373.679443,3204.598145 1365.696289,3204.598145 
	C1354.282104,3175.458496 1342.900513,3146.402344 1331.191895,3116.579102 
M1224.193604,3009.243652 
	C1215.451294,3031.745605 1206.708984,3054.247559 1197.825317,3077.113281 
	C1237.834351,3077.113281 1276.497437,3077.113281 1315.898315,3077.113281 
	C1295.998169,3025.063965 1276.437622,2973.902832 1256.719849,2922.330811 
	C1245.909912,2951.238770 1235.333496,2979.522461 1224.193604,3009.243652 
z"/>
<path fill="#243F63" opacity="1.000000" stroke="none" 
	d="
M1946.938721,3122.667969 
	C1978.204712,3046.122314 2009.200073,2970.292725 2039.978271,2894.375000 
	C2042.280640,2888.696289 2044.981812,2885.922363 2051.533203,2886.277344 
	C2062.163818,2886.853760 2072.849121,2886.402100 2083.511230,2886.439697 
	C2092.298340,2886.470703 2092.370361,2886.477051 2095.715576,2894.792480 
	C2116.719971,2947.006836 2137.693115,2999.233398 2158.670166,3051.458740 
	C2178.156982,3099.974609 2197.637939,3148.492676 2217.112305,3197.013672 
	C2217.851562,3198.856201 2218.491943,3200.738281 2219.177734,3202.600342 
	C2212.772705,3205.014648 2192.219971,3205.602051 2175.815430,3203.760254 
	C2163.973389,3173.678955 2151.937500,3143.106201 2139.808594,3112.296387 
	C2091.398926,3112.296387 2043.519043,3112.296387 1994.750488,3112.296387 
	C1982.676025,3142.793945 1970.577026,3173.353760 1958.387695,3204.141602 
	C1943.730103,3204.141602 1929.536743,3204.141602 1913.662109,3204.141602 
	C1924.897339,3176.599609 1935.755859,3149.980713 1946.938721,3122.667969 
M2067.010986,2922.647461 
	C2063.916260,2931.027588 2060.901855,2939.438232 2057.712646,2947.782227 
	C2042.757202,2986.915039 2027.697144,3026.008057 2012.857544,3065.184570 
	C2011.420410,3068.978516 2008.373779,3072.663330 2009.976807,3077.098877 
	C2048.653809,3077.098877 2087.007812,3077.098877 2125.928223,3077.098877 
	C2125.458496,3075.015869 2125.323486,3073.711426 2124.874023,3072.526123 
	C2106.023193,3022.810547 2087.144043,2973.105469 2067.010986,2922.647461 
z"/>
<path fill="#9D9D9D" opacity="1.000000" stroke="none" 
	d="
M1207.512939,3585.649170 
	C1224.750122,3554.713623 1251.765625,3541.778564 1285.200073,3540.095459 
	C1303.277222,3539.185303 1320.929443,3540.510742 1337.991455,3547.909424 
	C1363.807739,3559.103516 1379.607178,3578.594238 1386.292725,3605.244385 
	C1393.069946,3632.260254 1392.571045,3659.324951 1382.189453,3685.636719 
	C1369.973877,3716.597168 1346.515991,3733.884766 1314.422974,3739.605957 
	C1293.129150,3743.402100 1272.012817,3741.944092 1251.609741,3733.821533 
	C1226.338013,3723.760742 1210.035645,3705.084473 1202.179077,3679.718262 
	C1192.429443,3648.240234 1192.927124,3616.770508 1207.512939,3585.649170 
M1227.610596,3609.167725 
	C1222.318970,3629.217773 1221.952759,3649.312988 1227.651733,3669.306152 
	C1234.883301,3694.675781 1250.397339,3711.978760 1277.018799,3717.157227 
	C1284.756714,3718.662354 1292.935547,3718.465820 1300.885376,3718.210938 
	C1325.758057,3717.414551 1344.524780,3706.080078 1354.307617,3683.081055 
	C1366.580322,3654.229004 1366.459717,3624.717041 1353.835693,3595.854492 
	C1349.248169,3585.366211 1341.439453,3577.219727 1331.232788,3571.278564 
	C1317.076172,3563.037842 1301.908813,3561.111572 1285.989868,3562.096436 
	C1269.772705,3563.099609 1255.716309,3568.709961 1244.019775,3580.315918 
	C1236.201538,3588.073486 1231.541626,3597.454102 1227.610596,3609.167725 
z"/>
<path fill="#9C9C9C" opacity="1.000000" stroke="none" 
	d="
M3121.966553,3626.530762 
	C3131.486084,3627.084473 3140.164551,3625.294189 3149.179199,3627.860352 
	C3149.179199,3634.338623 3149.179199,3640.483643 3149.179199,3647.636719 
	C3145.257568,3647.834229 3141.719727,3648.162109 3138.181641,3648.166992 
	C3108.516846,3648.208496 3078.852051,3648.189453 3049.187256,3648.192627 
	C3046.854248,3648.192871 3044.520996,3648.227783 3042.187988,3648.232178 
	C3038.139893,3648.239502 3036.000488,3650.146240 3036.002930,3654.306396 
	C3036.014648,3674.277588 3036.008057,3694.248779 3036.008057,3715.233887 
	C3046.958252,3717.073486 3057.534912,3715.920654 3068.011963,3716.126465 
	C3078.340576,3716.329102 3088.676270,3716.170654 3099.009033,3716.170654 
	C3109.675049,3716.170654 3120.341064,3716.170654 3131.007080,3716.170654 
	C3141.318115,3716.170654 3151.628906,3716.170898 3162.140869,3716.170898 
	C3165.032715,3723.389648 3163.720703,3730.142578 3163.260010,3737.541016 
	C3111.817627,3737.541016 3060.980713,3737.541016 3010.197266,3737.541016 
	C3008.067871,3730.136963 3007.711670,3554.018555 3009.750488,3544.080811 
	C3016.636475,3541.830811 3137.899902,3540.900391 3157.020508,3543.064453 
	C3157.020508,3549.365967 3157.020508,3555.801758 3157.020508,3563.562744 
	C3153.886230,3563.774658 3150.400879,3564.209473 3146.915039,3564.215088 
	C3114.583740,3564.267578 3082.252441,3564.245850 3049.921143,3564.247070 
	C3047.588135,3564.247314 3045.250732,3564.353027 3042.922607,3564.249512 
	C3037.729004,3564.019043 3035.859863,3566.642334 3035.929199,3571.586426 
	C3036.069580,3581.583740 3035.963379,3591.584717 3035.960938,3601.583984 
	C3035.959229,3609.479736 3035.960449,3617.375244 3035.960449,3626.530518 
	C3065.185303,3626.530518 3093.079102,3626.530518 3121.966553,3626.530762 
z"/>
<path fill="#9C9C9C" opacity="1.000000" stroke="none" 
	d="
M2021.922363,3626.530762 
	C2029.819214,3626.531250 2036.729980,3626.531250 2043.139526,3626.531250 
	C2044.211426,3628.566895 2044.984863,3629.397461 2045.071411,3630.294434 
	C2046.767456,3647.883057 2046.473755,3648.190430 2028.901978,3648.190430 
	C2000.579102,3648.190430 1972.256104,3648.190430 1943.933228,3648.190430 
	C1940.343262,3648.190430 1936.753174,3648.190674 1933.482300,3648.190674 
	C1931.130005,3656.310791 1930.632690,3702.977783 1932.707397,3715.973145 
	C1973.875732,3716.507324 2015.330200,3715.866699 2057.539062,3716.330078 
	C2057.539062,3723.620605 2057.539062,3730.078857 2057.539062,3736.539307 
	C2050.250244,3738.643555 1915.397095,3738.999023 1904.701660,3736.814697 
	C1904.701660,3672.518066 1904.701660,3608.084717 1904.701660,3542.950195 
	C1953.962769,3542.950195 2002.751953,3542.950195 2051.877686,3542.950195 
	C2054.209961,3549.931641 2054.326416,3556.576904 2051.430908,3564.329590 
	C2011.959961,3564.329590 1972.453369,3564.329590 1932.230957,3564.329590 
	C1932.230957,3585.228760 1932.230957,3605.017578 1932.230957,3626.178223 
	C1947.241333,3626.897217 1962.109863,3626.427246 1976.952148,3626.512207 
	C1991.613037,3626.596191 2006.274658,3626.530518 2021.922363,3626.530762 
z"/>
<path fill="#9D9D9D" opacity="1.000000" stroke="none" 
	d="
M963.766296,3714.196289 
	C941.274719,3687.025391 936.024414,3656.087402 939.456421,3622.682129 
	C941.378479,3603.974365 947.422974,3587.114258 958.669189,3572.029541 
	C968.851501,3558.371582 982.776672,3549.776855 998.481750,3544.839111 
	C1023.595581,3536.943115 1049.205322,3537.376465 1074.063477,3546.115479 
	C1094.138184,3553.172852 1108.171509,3567.239746 1116.815186,3588.217773 
	C1108.686646,3591.068359 1101.313721,3593.654053 1093.313110,3596.459717 
	C1091.432495,3593.770508 1089.651855,3591.476318 1088.137939,3589.017822 
	C1078.976318,3574.141357 1065.433350,3565.708496 1048.476685,3563.076904 
	C1024.603516,3559.372070 1002.628906,3563.137695 985.094849,3581.551514 
	C975.835083,3591.275391 971.191833,3603.182373 968.555054,3616.155029 
	C964.124146,3637.954590 965.149841,3659.447754 974.317749,3679.690430 
	C984.861511,3702.970703 1003.137024,3716.036377 1029.265625,3718.371582 
	C1057.724731,3720.915039 1078.089355,3708.983643 1093.077515,3685.789795 
	C1097.566406,3678.843506 1097.856201,3678.721680 1104.887085,3681.985596 
	C1109.348755,3684.056641 1113.625000,3686.527344 1117.850342,3688.748779 
	C1098.752319,3745.955811 1007.655273,3759.215088 963.766296,3714.196289 
z"/>
<path fill="#9D9D9D" opacity="1.000000" stroke="none" 
	d="
M2301.687988,3593.657227 
	C2298.114502,3594.624268 2295.301270,3595.380127 2292.970703,3596.006348 
	C2291.788818,3595.000732 2291.078369,3594.678467 2290.826660,3594.141357 
	C2282.335449,3576.021240 2267.577148,3566.125977 2248.346436,3563.071289 
	C2224.497559,3559.283203 2202.532471,3563.190918 2185.046387,3581.624512 
	C2176.566895,3590.563477 2171.778809,3601.392578 2169.121338,3613.296387 
	C2164.059082,3635.970703 2164.529541,3658.441406 2174.301270,3679.695801 
	C2184.955322,3702.869385 2203.051270,3716.587158 2229.233643,3718.223877 
	C2242.706055,3719.065918 2255.903564,3718.452637 2267.863037,3711.149658 
	C2278.285156,3704.784912 2286.398193,3696.111084 2292.997803,3685.912598 
	C2297.642090,3678.735596 2297.904785,3678.648438 2305.665527,3682.326660 
	C2309.812744,3684.292480 2313.820068,3686.552734 2318.640137,3689.071777 
	C2313.056885,3702.621826 2304.910156,3713.203125 2294.060059,3721.705566 
	C2279.210449,3733.341553 2262.209961,3738.860107 2243.412842,3740.461182 
	C2229.266113,3741.666504 2215.596924,3740.937744 2202.034912,3736.890625 
	C2174.635986,3728.714355 2155.646973,3711.576172 2146.256836,3684.370605 
	C2134.453369,3650.172119 2134.888428,3616.494873 2151.210449,3583.661377 
	C2161.340088,3563.284668 2178.579102,3551.153076 2199.532227,3544.577637 
	C2223.637695,3537.013428 2248.227539,3537.640869 2272.210693,3545.455566 
	C2293.233643,3552.305176 2307.784912,3566.598145 2316.803467,3588.111328 
	C2311.550781,3590.063232 2306.999512,3591.754395 2301.687988,3593.657227 
z"/>
<path fill="#9D9D9D" opacity="1.000000" stroke="none" 
	d="
M2887.560547,3581.487305 
	C2891.965332,3570.227539 2896.377197,3559.791748 2900.050781,3549.102539 
	C2901.904297,3543.709473 2904.848877,3541.811768 2910.353760,3542.158936 
	C2916.585205,3542.551514 2922.860596,3542.249023 2929.162109,3542.249023 
	C2928.445068,3550.709717 2859.246094,3722.428467 2850.375000,3738.195801 
	C2844.372070,3738.195801 2837.743164,3737.834229 2831.173828,3738.302979 
	C2825.240723,3738.726318 2822.293701,3736.541992 2820.083252,3730.940430 
	C2809.335205,3703.705811 2798.141357,3676.647217 2787.089844,3649.532471 
	C2774.029785,3617.489014 2760.943848,3585.456055 2747.899414,3553.406006 
	C2746.667480,3550.379395 2745.653320,3547.263916 2744.086182,3542.943115 
	C2752.965576,3541.674316 2761.161133,3541.939453 2769.206543,3542.727051 
	C2771.145020,3542.916992 2773.347656,3546.591064 2774.359375,3549.094971 
	C2782.960205,3570.381836 2791.483154,3591.703857 2799.701904,3613.140625 
	C2811.491211,3643.891602 2823.000244,3674.749756 2834.651611,3705.553711 
	C2835.111572,3706.770264 2835.802490,3707.899414 2837.287598,3710.878662 
	C2845.140869,3696.340820 2847.879639,3681.375488 2853.605957,3667.639648 
	C2859.494385,3653.514160 2864.968018,3639.215332 2870.568604,3624.970947 
	C2876.168213,3610.729492 2881.700684,3596.462158 2887.560547,3581.487305 
z"/>
<path fill="#9F9F9F" opacity="1.000000" stroke="none" 
	d="
M2456.239746,3733.329590 
	C2456.196289,3677.180176 2456.196289,3621.962646 2456.196289,3565.947998 
	C2451.810303,3565.679199 2448.595947,3565.324707 2445.380127,3565.312256 
	C2429.719727,3565.251465 2414.057617,3565.389160 2398.398438,3565.239746 
	C2389.344482,3565.153320 2388.657471,3564.319092 2388.513672,3555.608887 
	C2388.449463,3551.712158 2388.502930,3547.812988 2388.502930,3544.325928 
	C2397.182617,3541.763184 2539.101074,3541.400879 2549.467773,3543.625977 
	C2549.674072,3545.381592 2550.054688,3547.297363 2550.094238,3549.220215 
	C2550.189697,3553.836914 2550.125000,3558.456543 2550.125000,3564.322998 
	C2538.653320,3566.206543 2527.748047,3565.038086 2516.954102,3565.241699 
	C2506.362305,3565.441406 2495.763916,3565.285156 2483.753662,3565.285156 
	C2483.394775,3585.139160 2483.627441,3604.007568 2483.585938,3622.865967 
	C2483.544189,3641.858643 2483.576904,3660.851562 2483.576904,3679.844238 
	C2483.576904,3698.770020 2483.576904,3717.696045 2483.576904,3737.882080 
	C2474.788818,3737.882080 2466.949707,3738.009521 2459.125977,3737.721680 
	C2458.137451,3737.685303 2457.229004,3735.468262 2456.239746,3733.329590 
z"/>
<path fill="#9C9C9C" opacity="1.000000" stroke="none" 
	d="
M1485.068726,3542.403320 
	C1492.861206,3542.301758 1499.761963,3542.301758 1507.777832,3542.301758 
	C1507.777832,3600.484619 1507.777832,3657.545166 1507.777832,3715.569580 
	C1512.395020,3715.808105 1515.923706,3716.142090 1519.452881,3716.148438 
	C1544.747437,3716.194336 1570.041992,3716.170654 1595.336548,3716.177246 
	C1597.665405,3716.177979 1599.996338,3716.181152 1602.322510,3716.276611 
	C1605.482056,3716.406738 1607.287964,3718.102539 1607.345947,3721.270264 
	C1607.441772,3726.498535 1607.371948,3731.729492 1607.371948,3737.559082 
	C1564.814453,3737.559082 1523.390747,3737.559082 1481.192261,3737.559082 
	C1480.960327,3734.336670 1480.572144,3731.443115 1480.570312,3728.549805 
	C1480.534790,3669.972900 1480.515137,3611.396240 1480.612305,3552.819336 
	C1480.618408,3549.141357 1478.962158,3544.532471 1485.068726,3542.403320 
z"/>
<path fill="#9C9C9C" opacity="1.000000" stroke="none" 
	d="
M1783.997070,3738.195312 
	C1753.137085,3738.195557 1723.276733,3738.195557 1692.781250,3738.195557 
	C1692.781250,3672.570068 1692.781250,3608.174805 1692.781250,3542.700928 
	C1697.224365,3542.544922 1701.427124,3542.343506 1705.632080,3542.265625 
	C1709.583740,3542.192383 1713.537842,3542.249756 1718.611084,3542.249756 
	C1718.959595,3546.844727 1719.498535,3550.675537 1719.502930,3554.506592 
	C1719.559814,3604.107666 1719.540771,3653.708740 1719.540771,3703.309814 
	C1719.540771,3707.196045 1719.540771,3711.082275 1719.540771,3715.973877 
	C1752.711792,3715.973877 1784.521851,3715.973877 1817.197266,3715.973877 
	C1817.197266,3723.447998 1817.197266,3729.892334 1817.197266,3737.474121 
	C1806.703369,3739.000732 1795.806030,3737.824463 1783.997070,3738.195312 
z"/>
<path fill="#A0A0A0" opacity="1.000000" stroke="none" 
	d="
M2659.321777,3738.110840 
	C2651.476807,3738.187744 2644.549805,3738.187744 2636.889160,3738.187744 
	C2636.889160,3672.780518 2636.889160,3608.344971 2636.889160,3543.228271 
	C2645.306885,3541.484375 2653.738281,3542.024658 2662.817383,3542.878662 
	C2663.109863,3545.751953 2663.594971,3548.303223 2663.596924,3550.855225 
	C2663.639404,3610.147949 2663.658203,3669.440918 2663.554443,3728.733398 
	C2663.548584,3732.031738 2665.319092,3736.373291 2659.321777,3738.110840 
z"/>
<path fill="#FEFEFF" opacity="1.000000" stroke="none" 
	d="
M2302.362793,1362.107910 
	C2329.716553,1358.612793 2356.259277,1356.135010 2382.973389,1358.094360 
	C2408.668457,1359.979126 2433.974609,1363.967163 2457.519531,1375.197632 
	C2495.365479,1393.249512 2518.815918,1423.312134 2530.140869,1463.258911 
	C2538.322266,1492.117065 2539.646973,1521.652588 2538.610107,1551.419922 
	C2536.872070,1601.309570 2529.845703,1650.216797 2512.318848,1697.271240 
	C2487.621582,1763.575073 2445.638428,1815.735840 2385.535156,1853.276489 
	C2341.433105,1880.822632 2293.139893,1897.326660 2242.613770,1907.991821 
	C2164.719482,1924.434204 2085.931152,1926.702148 2006.863647,1921.355469 
	C1954.230225,1917.796509 1902.357422,1909.194336 1852.117065,1892.277954 
	C1811.723022,1878.677002 1773.882202,1860.263794 1740.065308,1834.050171 
	C1701.969360,1804.519531 1672.777344,1767.838867 1652.221436,1724.300293 
	C1630.311401,1677.893433 1619.748291,1628.670044 1615.972290,1577.734497 
	C1613.973389,1550.769287 1613.073120,1523.840332 1616.224243,1496.919067 
	C1619.278564,1470.823975 1626.245728,1445.927368 1640.312012,1423.484619 
	C1658.921753,1393.792847 1686.249146,1375.868652 1719.422852,1366.283813 
	C1744.285645,1359.100220 1769.769531,1356.844482 1795.569336,1357.461304 
	C1846.553711,1358.680542 1896.000244,1369.093872 1945.025391,1382.193481 
	C1986.576904,1393.295898 2027.139282,1407.392578 2067.372314,1422.457031 
	C2073.711426,1424.830688 2079.075684,1424.995850 2085.451416,1422.528564 
	C2136.440186,1402.797852 2188.374023,1385.929810 2241.645752,1373.529053 
	C2261.398193,1368.930908 2281.529297,1365.959717 2302.362793,1362.107910 
z"/>
<path fill="#FDFDFE" opacity="1.000000" stroke="none" 
	d="
M2485.326904,3043.939941 
	C2476.555176,3044.900635 2468.623047,3046.313477 2460.676025,3046.402832 
	C2434.026123,3046.701660 2407.370850,3046.538574 2380.717773,3046.515137 
	C2378.768555,3046.513428 2376.820068,3046.213379 2374.166504,3045.993408 
	C2374.166504,3004.613037 2374.166504,2963.577637 2374.166504,2922.072021 
	C2376.189453,2921.740967 2377.767090,2921.249023 2379.341309,2921.260010 
	C2410.318604,2921.474121 2441.301514,2921.464600 2472.270020,2922.126465 
	C2487.572510,2922.453369 2501.884277,2926.978760 2513.948975,2936.821533 
	C2522.735840,2943.990234 2528.219971,2953.348145 2530.588623,2964.537842 
	C2533.978271,2980.549805 2533.610107,2996.456055 2527.699219,3011.703613 
	C2520.412598,3030.499756 2505.266602,3039.895508 2485.326904,3043.939941 
z"/>
<path fill="#FAFAFB" opacity="1.000000" stroke="none" 
	d="
M1224.475342,3008.524902 
	C1235.333496,2979.522461 1245.909912,2951.238770 1256.719849,2922.330811 
	C1276.437622,2973.902832 1295.998169,3025.063965 1315.898315,3077.113281 
	C1276.497437,3077.113281 1237.834351,3077.113281 1197.825317,3077.113281 
	C1206.708984,3054.247559 1215.451294,3031.745605 1224.475342,3008.524902 
z"/>
<path fill="#FAFAFB" opacity="1.000000" stroke="none" 
	d="
M2067.639648,2923.023438 
	C2087.144043,2973.105469 2106.023193,3022.810547 2124.874023,3072.526123 
	C2125.323486,3073.711426 2125.458496,3075.015869 2125.928223,3077.098877 
	C2087.007812,3077.098877 2048.653809,3077.098877 2009.976807,3077.098877 
	C2008.373779,3072.663330 2011.420410,3068.978516 2012.857544,3065.184570 
	C2027.697144,3026.008057 2042.757202,2986.915039 2057.712646,2947.782227 
	C2060.901855,2939.438232 2063.916260,2931.027588 2067.639648,2923.023438 
z"/>
<path fill="#FEFEFE" opacity="1.000000" stroke="none" 
	d="
M1227.808105,3608.386963 
	C1231.541626,3597.454102 1236.201538,3588.073486 1244.019775,3580.315918 
	C1255.716309,3568.709961 1269.772705,3563.099609 1285.989868,3562.096436 
	C1301.908813,3561.111572 1317.076172,3563.037842 1331.232788,3571.278564 
	C1341.439453,3577.219727 1349.248169,3585.366211 1353.835693,3595.854492 
	C1366.459717,3624.717041 1366.580322,3654.229004 1354.307617,3683.081055 
	C1344.524780,3706.080078 1325.758057,3717.414551 1300.885376,3718.210938 
	C1292.935547,3718.465820 1284.756714,3718.662354 1277.018799,3717.157227 
	C1250.397339,3711.978760 1234.883301,3694.675781 1227.651733,3669.306152 
	C1221.952759,3649.312988 1222.318970,3629.217773 1227.808105,3608.386963 
z"/>
</svg>