<svg version="1.1" id="Layer_1" xmlns="http://www.w3.org/2000/svg" xmlns:xlink="http://www.w3.org/1999/xlink" x="0px" y="0px"
	 width="100%" viewBox="0 0 4096 4096" enable-background="new 0 0 4096 4096" xml:space="preserve">
<path fill="#1E3A5F" opacity="1.000000" stroke="none" 
	d="
M2806.000000,4098.000000 
	C1870.666626,4098.000000 936.333313,4098.000000 2.000000,4098.000000 
	C2.000000,2732.666748 2.000000,1367.333374 2.000000,2.000000 
	C1367.333374,2.000000 2732.666748,2.000000 4098.000000,2.000000 
	C4098.000000,1367.333374 4098.000000,2732.666748 4098.000000,4098.000000 
	C3667.666748,4098.000000 3237.333252,4098.000000 2806.000000,4098.000000 
M2449.410645,425.610382 
	C2427.302734,418.243561 2405.382080,410.243744 2383.052246,403.625946 
	C2309.683838,381.882202 2234.924805,367.542419 2158.530518,361.546936 
	C2060.506592,353.853943 1963.395264,360.114258 1867.067749,379.169006 
	C1790.296387,394.355316 1716.263916,418.382172 1644.661133,449.896240 
	C1584.095947,476.552521 1526.862305,509.168640 1472.216187,546.440674 
	C1417.797119,583.557739 1367.380127,625.549622 1320.883789,672.091125 
	C1243.771362,749.278259 1180.267700,836.533386 1129.917969,933.393982 
	C1089.759033,1010.650330 1059.707153,1091.619019 1039.168457,1176.183838 
	C1022.996704,1242.768311 1013.516663,1310.334351 1010.538696,1378.733276 
	C1006.503418,1471.416748 1014.423035,1563.156250 1034.238892,1653.836060 
	C1050.156250,1726.675415 1073.354492,1797.161133 1104.080566,1865.031616 
	C1139.683350,1943.674194 1184.155762,2017.023926 1237.610107,2084.953613 
	C1288.345581,2149.427734 1345.507446,2207.391846 1409.645996,2258.531250 
	C1474.813110,2310.490723 1545.020020,2354.393311 1620.227539,2390.250488 
	C1689.954834,2423.495117 1762.613037,2448.497803 1837.858398,2465.826660 
	C1900.017090,2480.141846 1963.026245,2489.017334 2026.747559,2491.834717 
	C2103.217529,2495.215820 2179.248535,2490.723389 2254.800049,2477.758057 
	C2321.007324,2466.396484 2385.621582,2449.373535 2448.530029,2425.897705 
	C2530.400635,2395.345459 2607.304932,2355.194824 2679.423096,2305.856934 
	C2745.990479,2260.316650 2806.878906,2208.190430 2861.360107,2148.679199 
	C2917.394043,2087.472168 2965.976074,2020.892822 3006.695557,1948.491089 
	C3036.512939,1895.472900 3061.629395,1840.396606 3081.884033,1783.117310 
	C3101.683350,1727.126709 3117.167725,1669.953613 3127.198730,1611.345215 
	C3134.965332,1565.963867 3140.346924,1520.339233 3142.490967,1474.338013 
	C3146.042480,1398.139893 3141.087158,1322.504395 3128.418701,1247.284180 
	C3120.268555,1198.890869 3108.612061,1151.397949 3094.011963,1104.596191 
	C3063.029297,1005.278015 3017.889404,912.712769 2959.725098,826.588196 
	C2911.388916,755.016357 2854.920898,690.371521 2790.584229,632.661316 
	C2751.810791,597.881226 2710.789551,565.970581 2667.387695,537.221924 
	C2599.362549,492.163147 2527.345703,454.758942 2449.410645,425.610382 
M1711.863037,3204.554932 
	C1745.194092,3197.721680 1774.892334,3183.609375 1800.426025,3160.876465 
	C1804.754761,3157.022461 1806.794189,3153.079590 1806.745483,3147.159912 
	C1806.489990,3116.162354 1806.646240,3085.161621 1806.593628,3054.161865 
	C1806.589233,3051.604248 1806.094482,3049.047852 1805.774414,3045.982422 
	C1761.008301,3045.982422 1716.843994,3045.982422 1672.341309,3045.982422 
	C1672.341309,3058.002930 1672.341309,3069.468750 1672.341309,3082.131836 
	C1703.817139,3082.131836 1734.622070,3082.131836 1766.510376,3082.131836 
	C1766.510376,3095.556885 1766.510254,3107.808594 1766.510254,3120.060303 
	C1766.510254,3141.692871 1766.318359,3142.038574 1747.746948,3153.123291 
	C1746.317261,3153.976807 1744.841919,3154.758545 1743.358276,3155.516113 
	C1714.710327,3170.140137 1684.176758,3175.767334 1652.307983,3173.377930 
	C1603.668579,3169.731201 1567.143188,3139.308350 1554.669922,3092.204590 
	C1546.052124,3059.661133 1545.971069,3026.727783 1554.681396,2994.318115 
	C1564.526855,2957.685303 1586.800049,2931.500977 1624.452515,2921.485840 
	C1648.576660,2915.069336 1673.199585,2915.090332 1697.686401,2921.023438 
	C1722.638916,2927.070068 1741.754150,2940.816895 1754.709717,2963.062256 
	C1755.828125,2964.982910 1757.408325,2966.634521 1759.047363,2968.766357 
	C1772.339600,2964.778809 1785.261841,2960.902100 1797.537476,2957.219482 
	C1797.961914,2955.700439 1798.166138,2955.361084 1798.118042,2955.062012 
	C1798.013916,2954.415039 1797.867432,2953.747314 1797.588013,2953.159668 
	C1782.123291,2920.635254 1757.388794,2899.096191 1722.567383,2889.096924 
	C1702.474609,2883.327148 1681.972656,2881.782715 1661.260132,2881.638184 
	C1636.671997,2881.466553 1612.516479,2884.911621 1589.903687,2894.549561 
	C1550.450806,2911.364502 1524.289551,2940.840332 1512.739624,2982.203857 
	C1501.098145,3023.895508 1501.113770,3065.913330 1513.919312,3107.410645 
	C1527.685547,3152.021240 1556.648438,3182.911133 1600.745850,3198.642578 
	C1636.486816,3211.393066 1673.215332,3211.730225 1711.863037,3204.554932 
M2763.124512,3169.420166 
	C2759.893066,3169.420166 2756.661621,3169.420166 2753.661865,3169.420166 
	C2751.335693,3156.518555 2751.953613,3065.707764 2754.429688,3058.260010 
	C2814.740967,3058.260010 2875.308594,3058.260010 2936.757568,3058.260010 
	C2937.212891,3046.459961 2937.799072,3035.429688 2936.500732,3024.922607 
	C2934.969971,3024.335693 2934.658936,3024.112061 2934.347656,3024.111572 
	C2876.041504,3024.007812 2817.735107,3023.920654 2759.428955,3023.828613 
	C2758.429932,3023.827148 2757.426758,3023.822510 2756.433105,3023.736328 
	C2755.777100,3023.679688 2755.122803,3023.512207 2754.490723,3023.319336 
	C2754.198730,3023.229980 2753.945557,3022.979980 2753.704346,3022.768555 
	C2753.455078,3022.549805 2753.241943,3022.289551 2753.089111,3022.127686 
	C2753.089111,2988.895508 2753.089111,2955.749023 2753.089111,2921.825195 
	C2786.427979,2921.825195 2819.036133,2921.825195 2851.644287,2921.825195 
	C2884.251709,2921.825195 2916.859131,2921.825195 2950.037598,2921.825195 
	C2950.037598,2909.815918 2950.037598,2898.648438 2950.037598,2887.125488 
	C2869.737061,2887.125488 2789.968994,2887.125488 2710.318604,2887.125488 
	C2708.098145,2899.113525 2708.640625,3196.802002 2710.776367,3203.772217 
	C2726.516113,3205.562012 2951.956299,3204.848877 2960.004395,3202.755371 
	C2960.004395,3194.075195 2960.049561,3185.143066 2959.968750,3176.211914 
	C2959.951416,3174.289307 2959.480957,3172.370605 2959.079102,3169.420166 
	C2894.246338,3169.420166 2829.670410,3169.420166 2763.124512,3169.420166 
M2442.987793,3080.654053 
	C2461.255371,3079.673828 2479.886475,3080.639893 2497.716064,3077.312988 
	C2536.140381,3070.143066 2563.333984,3048.438965 2573.000732,3009.169922 
	C2575.820068,2997.716309 2576.582764,2985.319336 2575.842773,2973.507812 
	C2573.503174,2936.162842 2555.230957,2909.751465 2519.802002,2895.727783 
	C2501.099365,2888.324463 2481.642822,2886.611084 2461.915283,2886.529541 
	C2421.249756,2886.361328 2380.582764,2886.465088 2339.916504,2886.495361 
	C2336.998291,2886.497559 2334.080078,2886.812744 2330.716797,2887.008301 
	C2330.716797,2992.983154 2330.716797,3098.379150 2330.716797,3203.792969 
	C2345.217041,3203.792969 2359.042236,3203.792969 2373.547363,3203.792969 
	C2373.547363,3189.438721 2373.547363,3175.801025 2373.547363,3162.163330 
	C2373.547363,3148.830078 2373.506836,3135.496582 2373.558594,3122.163574 
	C2373.611084,3108.619141 2373.323486,3095.058105 2373.776855,3080.653564 
	C2397.086914,3080.653564 2419.039551,3080.653564 2442.987793,3080.654053 
M2123.885742,2964.727539 
	C2114.310059,2940.946533 2104.595215,2917.219971 2095.269043,2893.341797 
	C2093.263428,2888.206787 2090.650146,2886.112793 2085.013672,2886.349609 
	C2074.373535,2886.797119 2063.700439,2886.423584 2053.041992,2886.495605 
	C2043.230713,2886.561768 2043.967773,2884.722656 2039.451416,2895.778320 
	C1998.533203,2995.939941 1957.616089,3096.101807 1916.727783,3196.275391 
	C1915.792236,3198.567871 1915.195435,3200.998535 1914.219238,3204.058594 
	C1929.481323,3204.058594 1943.673584,3204.058594 1958.474976,3204.058594 
	C1970.612305,3173.408447 1982.706299,3142.867676 1994.781738,3112.374023 
	C2043.517700,3112.374023 2091.385254,3112.374023 2139.782715,3112.374023 
	C2151.903076,3143.156738 2163.932373,3173.708252 2176.061768,3204.513672 
	C2183.862061,3204.513672 2190.840332,3204.787598 2197.787598,3204.437500 
	C2204.854004,3204.081787 2212.153076,3206.018311 2219.602051,3202.950195 
	C2187.748535,3123.666748 2156.106934,3044.910645 2123.885742,2964.727539 
M1168.067505,3153.483398 
	C1173.451172,3139.893066 1178.834839,3126.302734 1184.286133,3112.541504 
	C1232.964600,3112.541504 1281.095093,3112.541504 1329.473267,3112.541504 
	C1341.578613,3143.335938 1353.494629,3173.648926 1365.357910,3203.827393 
	C1380.202148,3203.827393 1394.327759,3203.827393 1409.575195,3203.827393 
	C1366.779907,3097.365479 1324.379883,2991.886963 1282.223389,2887.014160 
	C1264.900879,2887.014160 1248.996948,2887.014160 1232.651611,2887.014160 
	C1189.570557,2992.528320 1146.611816,3097.743164 1103.311279,3203.794678 
	C1119.315186,3203.794678 1133.749634,3203.794678 1148.241577,3203.794678 
	C1154.823608,3187.108154 1161.170654,3171.017822 1168.067505,3153.483398 
M1205.899048,3589.025879 
	C1194.404175,3615.022461 1193.275146,3642.142822 1199.329590,3669.307129 
	C1207.118042,3704.250488 1227.854004,3728.284912 1263.276123,3737.677490 
	C1282.928833,3742.888672 1302.924561,3742.792725 1322.623291,3737.778320 
	C1347.438721,3731.461426 1366.983276,3717.471191 1378.232666,3694.208496 
	C1394.279053,3661.026855 1395.007690,3626.702148 1381.807861,3592.411865 
	C1373.637817,3571.187500 1358.328613,3556.599365 1337.277344,3547.650391 
	C1319.544067,3540.111816 1301.115356,3538.836914 1282.380371,3540.270020 
	C1248.952148,3542.826904 1222.338867,3556.698486 1205.899048,3589.025879 
M3035.987305,3700.815430 
	C3035.987305,3695.152344 3035.986816,3689.489014 3035.987549,3683.825928 
	C3035.988770,3675.164551 3035.894043,3666.501709 3036.018799,3657.842285 
	C3036.146240,3648.977051 3036.730225,3648.491943 3045.875977,3648.272705 
	C3048.206299,3648.216797 3050.539551,3648.260010 3052.871338,3648.260010 
	C3081.187256,3648.259277 3109.503174,3648.281738 3137.819092,3648.229980 
	C3141.362793,3648.223633 3144.905762,3647.824463 3149.066406,3647.569336 
	C3149.066406,3640.524902 3149.066406,3634.426270 3149.066406,3627.444336 
	C3144.498779,3627.184814 3140.602539,3626.779297 3136.705811,3626.771973 
	C3107.390625,3626.718018 3078.075195,3626.770508 3048.760010,3626.708252 
	C3044.906982,3626.700195 3041.054688,3626.229492 3037.504150,3625.993164 
	C3035.136719,3614.581055 3035.496582,3573.223877 3038.070068,3564.862793 
	C3041.653809,3564.681885 3045.559570,3564.319336 3049.466064,3564.313721 
	C3081.446289,3564.267334 3113.426758,3564.313721 3145.406982,3564.252197 
	C3149.247314,3564.244873 3153.086670,3563.759766 3157.094482,3563.484863 
	C3157.929199,3555.932129 3159.290283,3549.478760 3156.415771,3543.319580 
	C3139.495605,3540.963867 3016.441162,3541.961914 3009.373047,3544.588867 
	C3009.373047,3608.559082 3009.373047,3672.679688 3009.373047,3736.675293 
	C3010.941895,3737.278320 3011.844727,3737.926758 3012.749023,3737.929199 
	C3059.383545,3738.051514 3106.018066,3738.132568 3152.652588,3738.160645 
	C3155.619629,3738.162354 3158.588379,3737.722900 3161.552246,3737.443848 
	C3161.823242,3737.418457 3162.079590,3737.084473 3162.314697,3736.863525 
	C3162.556641,3736.636230 3162.764160,3736.372314 3163.033691,3736.072266 
	C3163.033691,3729.944824 3163.033691,3723.773193 3163.033691,3716.251953 
	C3152.109375,3716.251953 3141.881836,3716.251465 3131.654297,3716.251465 
	C3120.994141,3716.251465 3110.334229,3716.251465 3099.674072,3716.251465 
	C3089.347168,3716.251465 3079.018555,3716.363770 3068.693604,3716.220459 
	C3058.183105,3716.074707 3047.607178,3716.899414 3035.987305,3715.495117 
	C3035.987305,3710.581787 3035.987305,3706.668945 3035.987305,3700.815430 
M1931.353882,3585.059326 
	C1931.868530,3578.559326 1930.191528,3571.858398 1933.105225,3564.260498 
	C1972.590698,3564.260498 2012.069824,3564.260498 2052.416016,3564.260498 
	C2052.416016,3556.548096 2052.416016,3550.154785 2052.416016,3543.122559 
	C2002.887573,3543.122559 1954.147705,3543.122559 1905.579468,3543.122559 
	C1903.243286,3553.234863 1903.512085,3729.332275 1905.844727,3737.477295 
	C1956.135864,3737.477295 2006.568237,3737.477295 2057.621094,3737.477295 
	C2057.621094,3730.356934 2057.621094,3723.959473 2057.621094,3716.251953 
	C2036.269287,3716.251953 2015.703979,3716.395508 1995.141602,3716.212158 
	C1974.299316,3716.026123 1953.416992,3717.043701 1931.996094,3715.483398 
	C1931.996094,3693.009033 1931.996094,3671.517090 1931.996094,3648.989746 
	C1936.371948,3648.726562 1940.250122,3648.299072 1944.129150,3648.291016 
	C1972.114868,3648.232910 2000.100708,3648.260498 2028.086548,3648.259521 
	C2046.376587,3648.258789 2046.634155,3647.978760 2044.588745,3629.875488 
	C2044.522827,3629.291504 2043.937134,3628.765869 2043.009888,3627.273438 
	C2040.081299,3627.118896 2036.515381,3626.772705 2032.948975,3626.767334 
	C2003.297241,3626.723389 1973.645386,3626.773193 1943.993896,3626.705566 
	C1940.148926,3626.696777 1936.305176,3626.181396 1931.352295,3625.820068 
	C1931.352295,3612.226318 1931.352295,3599.635254 1931.353882,3585.059326 
M1075.031738,3706.213379 
	C1061.516968,3717.272705 1045.783203,3719.655762 1028.949829,3718.350586 
	C1002.848633,3716.326904 984.604614,3702.917725 974.171570,3679.467529 
	C963.743164,3656.028076 963.878601,3631.549316 970.651367,3607.132812 
	C973.428406,3597.121094 978.666931,3588.267334 985.884705,3580.522949 
	C1006.077393,3558.855469 1043.164185,3557.507324 1065.786987,3568.504150 
	C1073.436523,3572.222412 1079.889038,3577.260498 1084.721924,3584.316650 
	C1087.321899,3588.113281 1090.022095,3591.840820 1092.830566,3595.816406 
	C1101.132202,3593.902344 1108.954468,3591.859863 1115.926514,3587.910889 
	C1111.704102,3570.395508 1090.188477,3550.427246 1070.640625,3544.829590 
	C1055.365723,3540.456055 1039.941895,3539.385986 1024.198120,3540.126953 
	C982.362915,3542.095459 950.953857,3567.906494 941.807190,3608.719238 
	C935.764526,3635.681396 937.237488,3662.336426 947.609680,3688.160889 
	C956.818298,3711.088379 973.066528,3727.126465 996.568298,3734.801514 
	C1006.574951,3738.069580 1017.253052,3740.393799 1027.731323,3740.880615 
	C1051.546509,3741.986816 1074.126343,3737.157715 1093.479858,3722.020264 
	C1104.373291,3713.500244 1112.693237,3703.005371 1118.573364,3689.359375 
	C1113.337036,3686.589600 1108.671875,3684.233154 1104.115967,3681.681152 
	C1099.388428,3679.033691 1096.607422,3680.407715 1093.435303,3684.793213 
	C1088.209717,3692.016846 1081.956055,3698.496826 1075.031738,3706.213379 
M2300.139160,3562.857178 
	C2290.541504,3553.111572 2278.998047,3547.135498 2265.773438,3543.553223 
	C2250.014160,3539.283691 2234.044922,3538.737305 2218.192627,3540.664551 
	C2182.854980,3544.960938 2154.188477,3564.637451 2143.664795,3602.092041 
	C2135.382568,3631.568604 2136.625488,3660.697998 2148.158447,3689.210205 
	C2156.006104,3708.611328 2169.507080,3722.697510 2188.378662,3731.680420 
	C2200.895508,3737.637939 2214.142578,3740.802734 2227.937988,3741.083008 
	C2251.797363,3741.567627 2274.343262,3737.080566 2293.668945,3721.894287 
	C2304.538818,3713.352295 2312.844727,3702.867920 2318.565186,3689.268066 
	C2313.835693,3686.759521 2309.861084,3684.458252 2305.724609,3682.499023 
	C2297.862549,3678.773926 2297.493164,3678.846436 2292.989258,3685.956299 
	C2277.886719,3709.796387 2256.896484,3721.227295 2228.193848,3718.387939 
	C2203.335693,3715.928711 2185.529297,3703.331787 2175.075195,3681.466309 
	C2163.545166,3657.350830 2163.370605,3631.729492 2170.907471,3606.375000 
	C2176.049316,3589.077637 2186.951660,3575.881348 2203.565430,3567.944092 
	C2215.341309,3562.317383 2227.906494,3561.172119 2240.650391,3562.087891 
	C2261.894531,3563.614746 2279.086426,3572.196533 2289.668701,3591.609863 
	C2290.429443,3593.005859 2291.448486,3594.260986 2292.806885,3596.256104 
	C2300.663086,3593.484863 2308.848633,3592.411621 2316.077881,3587.561279 
	C2313.012695,3578.052002 2307.986328,3570.400635 2300.139160,3562.857178 
M2773.299561,3615.775635 
	C2787.538574,3650.616699 2801.606201,3685.529297 2816.079590,3720.272461 
	C2825.029053,3741.755127 2818.740967,3737.541992 2842.947754,3738.314453 
	C2849.371826,3738.519287 2852.524658,3735.959961 2854.739258,3730.242676 
	C2860.512695,3715.336426 2866.716553,3700.596680 2872.762695,3685.795898 
	C2890.900391,3641.395020 2909.058838,3597.002441 2927.152832,3552.583496 
	C2928.320557,3549.716797 2929.008057,3546.654541 2930.318848,3542.377930 
	C2922.982910,3542.377930 2917.365479,3542.331787 2911.748779,3542.388428 
	C2902.996338,3542.476807 2902.860107,3542.454102 2899.604736,3550.932129 
	C2880.265137,3601.297852 2861.003906,3651.693359 2841.668457,3702.060791 
	C2840.683105,3704.627197 2839.254395,3707.023926 2837.339355,3710.901855 
	C2835.677979,3707.371338 2834.729980,3705.657715 2834.039551,3703.845703 
	C2821.231934,3670.237305 2808.525635,3636.590332 2795.642578,3603.010742 
	C2788.722900,3584.974854 2781.606445,3567.011963 2774.318359,3549.122070 
	C2773.305908,3546.636719 2770.951904,3543.087646 2768.949951,3542.900391 
	C2761.179688,3542.173096 2753.300781,3542.604248 2743.629639,3542.604248 
	C2753.789795,3567.671631 2763.250244,3591.012695 2773.299561,3615.775635 
M2458.046143,3737.297363 
	C2466.210449,3738.755615 2474.325439,3738.884033 2483.638916,3736.771484 
	C2483.638916,3679.591309 2483.638916,3622.776123 2483.638916,3565.141846 
	C2488.426270,3564.808838 2491.995850,3564.366455 2495.567871,3564.346436 
	C2510.232666,3564.264648 2524.898193,3564.354736 2539.562988,3564.275879 
	C2542.756592,3564.258789 2545.947754,3563.803955 2549.303223,3563.537842 
	C2550.178955,3556.058350 2551.184570,3549.610596 2548.877441,3543.413330 
	C2534.806641,3541.251953 2396.955322,3541.983887 2389.554932,3544.297363 
	C2388.444824,3550.603760 2387.500488,3557.025879 2390.503662,3563.917480 
	C2412.041016,3565.260742 2433.637207,3563.054443 2456.211426,3565.336182 
	C2456.211426,3570.127686 2456.211426,3574.051025 2456.211426,3577.974365 
	C2456.211426,3626.636230 2456.195801,3675.298096 2456.240967,3723.959961 
	C2456.244629,3727.936768 2456.663330,3731.913086 2458.046143,3737.297363 
M1480.705078,3700.998291 
	C1480.704712,3706.994629 1480.486816,3713.001221 1480.764404,3718.984863 
	C1481.049194,3725.124756 1479.287231,3731.524414 1482.292358,3737.266357 
	C1496.071899,3739.158691 1598.923828,3738.538330 1606.621216,3736.438721 
	C1607.405884,3730.124512 1608.490601,3723.673584 1605.315186,3716.497803 
	C1573.291748,3715.769775 1541.154419,3716.765625 1507.952026,3715.933105 
	C1507.952026,3710.571777 1507.952026,3706.646973 1507.952026,3702.722412 
	C1507.952026,3653.418213 1507.968018,3604.113770 1507.921387,3554.809570 
	C1507.917725,3550.969727 1507.476074,3547.130371 1507.254639,3543.560059 
	C1495.487549,3541.676514 1488.793335,3541.937744 1480.706665,3544.722412 
	C1480.706665,3595.873291 1480.706665,3647.436035 1480.705078,3700.998291 
M1692.151489,3696.999756 
	C1692.151367,3703.660889 1691.886108,3710.335693 1692.224976,3716.979736 
	C1692.572266,3723.790039 1690.586670,3730.857178 1693.710815,3737.307373 
	C1710.795044,3739.631348 1810.671387,3738.638916 1817.377197,3736.117676 
	C1817.377197,3729.969238 1817.377197,3723.802246 1817.377197,3716.804443 
	C1813.105347,3716.587402 1809.538208,3716.255615 1805.970703,3716.249023 
	C1780.991333,3716.202881 1756.011719,3716.252930 1731.032593,3716.189697 
	C1727.513916,3716.180908 1723.996338,3715.724609 1719.456909,3715.402832 
	C1719.456909,3710.403076 1719.456909,3706.470459 1719.456909,3702.537842 
	C1719.456909,3653.578125 1719.479980,3604.618652 1719.415039,3555.658936 
	C1719.409546,3551.494629 1718.816040,3547.330811 1718.475098,3542.900146 
	C1709.180542,3542.411865 1701.023804,3541.347168 1692.151855,3543.785400 
	C1692.151855,3594.501709 1692.151855,3644.750732 1692.151489,3696.999756 
M2663.485352,3663.000000 
	C2663.485596,3643.004395 2663.570557,3623.008545 2663.461670,3603.013672 
	C2663.353760,3583.157471 2663.957275,3563.277344 2663.042969,3543.100098 
	C2653.709229,3543.100098 2645.591309,3543.100098 2637.647217,3543.100098 
	C2635.362061,3553.589355 2635.684570,3729.553711 2637.946777,3737.459961 
	C2645.947998,3737.459961 2654.059326,3737.459961 2663.484131,3737.459961 
	C2663.484131,3712.812500 2663.484131,3688.906250 2663.485352,3663.000000 
z"/>
<path fill="#FFFFFF" opacity="1.000000" stroke="none" 
	d="
M2450.124512,425.893311 
	C2527.345703,454.758942 2599.362549,492.163147 2667.387695,537.221924 
	C2710.789551,565.970581 2751.810791,597.881226 2790.584229,632.661316 
	C2854.920898,690.371521 2911.388916,755.016357 2959.725098,826.588196 
	C3017.889404,912.712769 3063.029297,1005.278015 3094.011963,1104.596191 
	C3108.612061,1151.397949 3120.268555,1198.890869 3128.418701,1247.284180 
	C3141.087158,1322.504395 3146.042480,1398.139893 3142.490967,1474.338013 
	C3140.346924,1520.339233 3134.965332,1565.963867 3127.198730,1611.345215 
	C3117.167725,1669.953613 3101.683350,1727.126709 3081.884033,1783.117310 
	C3061.629395,1840.396606 3036.512939,1895.472900 3006.695557,1948.491089 
	C2965.976074,2020.892822 2917.394043,2087.472168 2861.360107,2148.679199 
	C2806.878906,2208.190430 2745.990479,2260.316650 2679.423096,2305.856934 
	C2607.304932,2355.194824 2530.400635,2395.345459 2448.530029,2425.897705 
	C2385.621582,2449.373535 2321.007324,2466.396484 2254.800049,2477.758057 
	C2179.248535,2490.723389 2103.217529,2495.215820 2026.747559,2491.834717 
	C1963.026245,2489.017334 1900.017090,2480.141846 1837.858398,2465.826660 
	C1762.613037,2448.497803 1689.954834,2423.495117 1620.227539,2390.250488 
	C1545.020020,2354.393311 1474.813110,2310.490723 1409.645996,2258.531250 
	C1345.507446,2207.391846 1288.345581,2149.427734 1237.610107,2084.953613 
	C1184.155762,2017.023926 1139.683350,1943.674194 1104.080566,1865.031616 
	C1073.354492,1797.161133 1050.156250,1726.675415 1034.238892,1653.836060 
	C1014.423035,1563.156250 1006.503418,1471.416748 1010.538696,1378.733276 
	C1013.516663,1310.334351 1022.996704,1242.768311 1039.168457,1176.183838 
	C1059.707153,1091.619019 1089.759033,1010.650330 1129.917969,933.393982 
	C1180.267700,836.533386 1243.771362,749.278259 1320.883789,672.091125 
	C1367.380127,625.549622 1417.797119,583.557739 1472.216187,546.440674 
	C1526.862305,509.168640 1584.095947,476.552521 1644.661133,449.896240 
	C1716.263916,418.382172 1790.296387,394.355316 1867.067749,379.169006 
	C1963.395264,360.114258 2060.506592,353.853943 2158.530518,361.546936 
	C2234.924805,367.542419 2309.683838,381.882202 2383.052246,403.625946 
	C2405.382080,410.243744 2427.302734,418.243561 2450.124512,425.893311 
M2423.102539,1363.489258 
	C2402.103271,1359.510620 2380.962158,1356.826416 2359.545410,1357.394165 
	C2319.768311,1358.448730 2280.577393,1364.116821 2241.911377,1373.310791 
	C2188.689941,1385.965942 2136.706543,1402.662720 2085.700439,1422.374634 
	C2079.390381,1424.813232 2074.011719,1424.939575 2067.610840,1422.530518 
	C2027.395264,1407.395752 1986.803589,1393.370239 1945.258423,1382.220093 
	C1895.908569,1368.975342 1846.111938,1358.546753 1794.788696,1357.383057 
	C1767.980591,1356.775024 1741.557129,1359.409546 1715.815918,1367.387451 
	C1678.298218,1379.015381 1649.873535,1401.536865 1632.671631,1437.236694 
	C1620.613525,1462.261597 1615.709595,1489.068115 1614.537720,1516.581177 
	C1613.015381,1552.317261 1615.364868,1587.884521 1621.239990,1623.146851 
	C1627.568726,1661.132202 1638.436401,1697.780518 1655.968262,1732.216187 
	C1692.449585,1803.872070 1750.317017,1851.789062 1823.765015,1881.888062 
	C1884.861206,1906.925659 1949.121338,1917.880981 2014.619995,1921.942627 
	C2072.589355,1925.537354 2130.534424,1924.661011 2188.242920,1917.155151 
	C2247.384766,1909.463257 2304.798096,1895.786865 2358.395996,1868.569580 
	C2439.359863,1827.455322 2492.752686,1763.330078 2519.375000,1676.661987 
	C2531.394775,1637.531494 2536.719971,1597.338745 2538.506348,1556.604126 
	C2539.883301,1525.200317 2538.892578,1493.953369 2530.230469,1463.424805 
	C2521.807373,1433.738281 2506.526611,1408.564209 2481.647461,1389.688721 
	C2464.617676,1376.768311 2445.251709,1369.054077 2423.102539,1363.489258 
z"/>
<path fill="#F9FAFB" opacity="1.000000" stroke="none" 
	d="
M1711.039673,3204.718750 
	C1673.215332,3211.730225 1636.486816,3211.393066 1600.745850,3198.642578 
	C1556.648438,3182.911133 1527.685547,3152.021240 1513.919312,3107.410645 
	C1501.113770,3065.913330 1501.098145,3023.895508 1512.739624,2982.203857 
	C1524.289551,2940.840332 1550.450806,2911.364502 1589.903687,2894.549561 
	C1612.516479,2884.911621 1636.671997,2881.466553 1661.260132,2881.638184 
	C1681.972656,2881.782715 1702.474609,2883.327148 1722.567383,2889.096924 
	C1757.388794,2899.096191 1782.123291,2920.635254 1797.588013,2953.159668 
	C1797.867432,2953.747314 1798.013916,2954.415039 1798.118042,2955.062012 
	C1798.166138,2955.361084 1797.961914,2955.700439 1797.537476,2957.219482 
	C1785.261841,2960.902100 1772.339600,2964.778809 1759.047363,2968.766357 
	C1757.408325,2966.634521 1755.828125,2964.982910 1754.709717,2963.062256 
	C1741.754150,2940.816895 1722.638916,2927.070068 1697.686401,2921.023438 
	C1673.199585,2915.090332 1648.576660,2915.069336 1624.452515,2921.485840 
	C1586.800049,2931.500977 1564.526855,2957.685303 1554.681396,2994.318115 
	C1545.971069,3026.727783 1546.052124,3059.661133 1554.669922,3092.204590 
	C1567.143188,3139.308350 1603.668579,3169.731201 1652.307983,3173.377930 
	C1684.176758,3175.767334 1714.710327,3170.140137 1743.358276,3155.516113 
	C1744.841919,3154.758545 1746.317261,3153.976807 1747.746948,3153.123291 
	C1766.318359,3142.038574 1766.510254,3141.692871 1766.510254,3120.060303 
	C1766.510254,3107.808594 1766.510376,3095.556885 1766.510376,3082.131836 
	C1734.622070,3082.131836 1703.817139,3082.131836 1672.341309,3082.131836 
	C1672.341309,3069.468750 1672.341309,3058.002930 1672.341309,3045.982422 
	C1716.843994,3045.982422 1761.008301,3045.982422 1805.774414,3045.982422 
	C1806.094482,3049.047852 1806.589233,3051.604248 1806.593628,3054.161865 
	C1806.646240,3085.161621 1806.489990,3116.162354 1806.745483,3147.159912 
	C1806.794189,3153.079590 1804.754761,3157.022461 1800.426025,3160.876465 
	C1774.892334,3183.609375 1745.194092,3197.721680 1711.039673,3204.718750 
z"/>
<path fill="#FBFBFC" opacity="1.000000" stroke="none" 
	d="
M2764.109619,3169.420166 
	C2829.670410,3169.420166 2894.246338,3169.420166 2959.079102,3169.420166 
	C2959.480957,3172.370605 2959.951416,3174.289307 2959.968750,3176.211914 
	C2960.049561,3185.143066 2960.004395,3194.075195 2960.004395,3202.755371 
	C2951.956299,3204.848877 2726.516113,3205.562012 2710.776367,3203.772217 
	C2708.640625,3196.802002 2708.098145,2899.113525 2710.318604,2887.125488 
	C2789.968994,2887.125488 2869.737061,2887.125488 2950.037598,2887.125488 
	C2950.037598,2898.648438 2950.037598,2909.815918 2950.037598,2921.825195 
	C2916.859131,2921.825195 2884.251709,2921.825195 2851.644287,2921.825195 
	C2819.036133,2921.825195 2786.427979,2921.825195 2753.089111,2921.825195 
	C2753.089111,2955.749023 2753.089111,2988.895508 2753.089111,3022.127686 
	C2753.241943,3022.289551 2753.455078,3022.549805 2753.704346,3022.768555 
	C2753.945557,3022.979980 2754.198730,3023.229980 2754.490723,3023.319336 
	C2755.122803,3023.512207 2755.777100,3023.679688 2756.433105,3023.736328 
	C2757.426758,3023.822510 2758.429932,3023.827148 2759.428955,3023.828613 
	C2817.735107,3023.920654 2876.041504,3024.007812 2934.347656,3024.111572 
	C2934.658936,3024.112061 2934.969971,3024.335693 2936.500732,3024.922607 
	C2937.799072,3035.429688 2937.212891,3046.459961 2936.757568,3058.260010 
	C2875.308594,3058.260010 2814.740967,3058.260010 2754.429688,3058.260010 
	C2751.953613,3065.707764 2751.335693,3156.518555 2753.661865,3169.420166 
	C2756.661621,3169.420166 2759.893066,3169.420166 2764.109619,3169.420166 
z"/>
<path fill="#F8F9FA" opacity="1.000000" stroke="none" 
	d="
M2441.989990,3080.653809 
	C2419.039551,3080.653564 2397.086914,3080.653564 2373.776855,3080.653564 
	C2373.323486,3095.058105 2373.611084,3108.619141 2373.558594,3122.163574 
	C2373.506836,3135.496582 2373.547363,3148.830078 2373.547363,3162.163330 
	C2373.547363,3175.801025 2373.547363,3189.438721 2373.547363,3203.792969 
	C2359.042236,3203.792969 2345.217041,3203.792969 2330.716797,3203.792969 
	C2330.716797,3098.379150 2330.716797,2992.983154 2330.716797,2887.008301 
	C2334.080078,2886.812744 2336.998291,2886.497559 2339.916504,2886.495361 
	C2380.582764,2886.465088 2421.249756,2886.361328 2461.915283,2886.529541 
	C2481.642822,2886.611084 2501.099365,2888.324463 2519.802002,2895.727783 
	C2555.230957,2909.751465 2573.503174,2936.162842 2575.842773,2973.507812 
	C2576.582764,2985.319336 2575.820068,2997.716309 2573.000732,3009.169922 
	C2563.333984,3048.438965 2536.140381,3070.143066 2497.716064,3077.312988 
	C2479.886475,3080.639893 2461.255371,3079.673828 2441.989990,3080.653809 
M2482.911621,2923.616699 
	C2478.966797,2923.070557 2475.027100,2922.091553 2471.076660,2922.047363 
	C2440.459717,2921.703857 2409.840332,2921.527588 2379.221680,2921.362061 
	C2377.663330,2921.353760 2376.101807,2921.920898 2374.763428,2922.177734 
	C2372.729736,2933.460938 2373.120850,3038.653564 2375.194580,3046.123047 
	C2376.707275,3046.270508 2378.332275,3046.565918 2379.957275,3046.567383 
	C2406.586914,3046.588379 2433.225098,3046.953369 2459.842285,3046.376221 
	C2470.402588,3046.147461 2481.092773,3044.586426 2491.412842,3042.255615 
	C2508.294434,3038.443359 2520.801025,3028.411621 2527.507568,3012.182861 
	C2531.890869,3001.575928 2532.720703,2990.301514 2532.488525,2978.863037 
	C2531.887939,2949.274658 2514.041260,2929.154053 2482.911621,2923.616699 
z"/>
<path fill="#F9FAFB" opacity="1.000000" stroke="none" 
	d="
M2124.175537,2965.441162 
	C2156.106934,3044.910645 2187.748535,3123.666748 2219.602051,3202.950195 
	C2212.153076,3206.018311 2204.854004,3204.081787 2197.787598,3204.437500 
	C2190.840332,3204.787598 2183.862061,3204.513672 2176.061768,3204.513672 
	C2163.932373,3173.708252 2151.903076,3143.156738 2139.782715,3112.374023 
	C2091.385254,3112.374023 2043.517700,3112.374023 1994.781738,3112.374023 
	C1982.706299,3142.867676 1970.612305,3173.408447 1958.474976,3204.058594 
	C1943.673584,3204.058594 1929.481323,3204.058594 1914.219238,3204.058594 
	C1915.195435,3200.998535 1915.792236,3198.567871 1916.727783,3196.275391 
	C1957.616089,3096.101807 1998.533203,2995.939941 2039.451416,2895.778320 
	C2043.967773,2884.722656 2043.230713,2886.561768 2053.041992,2886.495605 
	C2063.700439,2886.423584 2074.373535,2886.797119 2085.013672,2886.349609 
	C2090.650146,2886.112793 2093.263428,2888.206787 2095.269043,2893.341797 
	C2104.595215,2917.219971 2114.310059,2940.946533 2124.175537,2965.441162 
M2033.460693,3012.400391 
	C2025.203369,3033.671875 2016.945923,3054.943115 2008.272339,3077.286621 
	C2048.322998,3077.286621 2086.700439,3077.286621 2126.279541,3077.286621 
	C2106.427002,3025.409424 2086.838379,2974.222656 2067.115234,2922.683838 
	C2055.935791,2952.477295 2044.966675,2981.710205 2033.460693,3012.400391 
z"/>
<path fill="#F9FAFB" opacity="1.000000" stroke="none" 
	d="
M1167.792480,3154.205566 
	C1161.170654,3171.017822 1154.823608,3187.108154 1148.241577,3203.794678 
	C1133.749634,3203.794678 1119.315186,3203.794678 1103.311279,3203.794678 
	C1146.611816,3097.743164 1189.570557,2992.528320 1232.651611,2887.014160 
	C1248.996948,2887.014160 1264.900879,2887.014160 1282.223389,2887.014160 
	C1324.379883,2991.886963 1366.779907,3097.365479 1409.575195,3203.827393 
	C1394.327759,3203.827393 1380.202148,3203.827393 1365.357910,3203.827393 
	C1353.494629,3173.648926 1341.578613,3143.335938 1329.473267,3112.541504 
	C1281.095093,3112.541504 1232.964600,3112.541504 1184.286133,3112.541504 
	C1178.834839,3126.302734 1173.451172,3139.893066 1167.792480,3154.205566 
M1299.226685,3033.783203 
	C1292.014282,3015.169922 1284.675781,2996.604248 1277.625244,2977.929932 
	C1270.713867,2959.624023 1264.095215,2941.207520 1257.121948,2922.224365 
	C1237.264160,2974.507324 1217.834106,3025.664062 1198.333252,3077.007080 
	C1213.875244,3078.955322 1308.150146,3078.247803 1315.679199,3076.071289 
	C1310.386963,3062.419678 1305.112671,3048.814453 1299.226685,3033.783203 
z"/>
<path fill="#8A99AC" opacity="1.000000" stroke="none" 
	d="
M1206.229614,3588.354492 
	C1222.338867,3556.698486 1248.952148,3542.826904 1282.380371,3540.270020 
	C1301.115356,3538.836914 1319.544067,3540.111816 1337.277344,3547.650391 
	C1358.328613,3556.599365 1373.637817,3571.187500 1381.807861,3592.411865 
	C1395.007690,3626.702148 1394.279053,3661.026855 1378.232666,3694.208496 
	C1366.983276,3717.471191 1347.438721,3731.461426 1322.623291,3737.778320 
	C1302.924561,3742.792725 1282.928833,3742.888672 1263.276123,3737.677490 
	C1227.854004,3728.284912 1207.118042,3704.250488 1199.329590,3669.307129 
	C1193.275146,3642.142822 1194.404175,3615.022461 1206.229614,3588.354492 
M1251.052246,3573.796143 
	C1240.668701,3582.125244 1232.991211,3592.379883 1228.867676,3605.131104 
	C1221.455933,3628.051025 1221.615356,3651.067383 1228.996704,3673.863037 
	C1234.791138,3691.757324 1245.854736,3705.891113 1263.495117,3713.145752 
	C1280.213745,3720.021240 1297.846313,3720.474854 1315.464478,3716.210938 
	C1330.783081,3712.503662 1343.219116,3704.165527 1350.571411,3690.272705 
	C1367.603271,3658.089355 1367.584229,3625.125488 1351.991089,3592.443115 
	C1347.519043,3583.069824 1340.004272,3575.674561 1330.422607,3570.870605 
	C1303.992676,3557.617920 1277.940552,3558.224854 1251.052246,3573.796143 
z"/>
<path fill="#8B99AC" opacity="1.000000" stroke="none" 
	d="
M3035.987305,3701.785645 
	C3035.987305,3706.668945 3035.987305,3710.581787 3035.987305,3715.495117 
	C3047.607178,3716.899414 3058.183105,3716.074707 3068.693604,3716.220459 
	C3079.018555,3716.363770 3089.347168,3716.251465 3099.674072,3716.251465 
	C3110.334229,3716.251465 3120.994141,3716.251465 3131.654297,3716.251465 
	C3141.881836,3716.251465 3152.109375,3716.251953 3163.033691,3716.251953 
	C3163.033691,3723.773193 3163.033691,3729.944824 3163.033691,3736.072266 
	C3162.764160,3736.372314 3162.556641,3736.636230 3162.314697,3736.863525 
	C3162.079590,3737.084473 3161.823242,3737.418457 3161.552246,3737.443848 
	C3158.588379,3737.722900 3155.619629,3738.162354 3152.652588,3738.160645 
	C3106.018066,3738.132568 3059.383545,3738.051514 3012.749023,3737.929199 
	C3011.844727,3737.926758 3010.941895,3737.278320 3009.373047,3736.675293 
	C3009.373047,3672.679688 3009.373047,3608.559082 3009.373047,3544.588867 
	C3016.441162,3541.961914 3139.495605,3540.963867 3156.415771,3543.319580 
	C3159.290283,3549.478760 3157.929199,3555.932129 3157.094482,3563.484863 
	C3153.086670,3563.759766 3149.247314,3564.244873 3145.406982,3564.252197 
	C3113.426758,3564.313721 3081.446289,3564.267334 3049.466064,3564.313721 
	C3045.559570,3564.319336 3041.653809,3564.681885 3038.070068,3564.862793 
	C3035.496582,3573.223877 3035.136719,3614.581055 3037.504150,3625.993164 
	C3041.054688,3626.229492 3044.906982,3626.700195 3048.760010,3626.708252 
	C3078.075195,3626.770508 3107.390625,3626.718018 3136.705811,3626.771973 
	C3140.602539,3626.779297 3144.498779,3627.184814 3149.066406,3627.444336 
	C3149.066406,3634.426270 3149.066406,3640.524902 3149.066406,3647.569336 
	C3144.905762,3647.824463 3141.362793,3648.223633 3137.819092,3648.229980 
	C3109.503174,3648.281738 3081.187256,3648.259277 3052.871338,3648.260010 
	C3050.539551,3648.260010 3048.206299,3648.216797 3045.875977,3648.272705 
	C3036.730225,3648.491943 3036.146240,3648.977051 3036.018799,3657.842285 
	C3035.894043,3666.501709 3035.988770,3675.164551 3035.987549,3683.825928 
	C3035.986816,3689.489014 3035.987305,3695.152344 3035.987305,3701.785645 
z"/>
<path fill="#8B99AC" opacity="1.000000" stroke="none" 
	d="
M1931.353027,3586.051758 
	C1931.352295,3599.635254 1931.352295,3612.226318 1931.352295,3625.820068 
	C1936.305176,3626.181396 1940.148926,3626.696777 1943.993896,3626.705566 
	C1973.645386,3626.773193 2003.297241,3626.723389 2032.948975,3626.767334 
	C2036.515381,3626.772705 2040.081299,3627.118896 2043.009888,3627.273438 
	C2043.937134,3628.765869 2044.522827,3629.291504 2044.588745,3629.875488 
	C2046.634155,3647.978760 2046.376587,3648.258789 2028.086548,3648.259521 
	C2000.100708,3648.260498 1972.114868,3648.232910 1944.129150,3648.291016 
	C1940.250122,3648.299072 1936.371948,3648.726562 1931.996094,3648.989746 
	C1931.996094,3671.517090 1931.996094,3693.009033 1931.996094,3715.483398 
	C1953.416992,3717.043701 1974.299316,3716.026123 1995.141602,3716.212158 
	C2015.703979,3716.395508 2036.269287,3716.251953 2057.621094,3716.251953 
	C2057.621094,3723.959473 2057.621094,3730.356934 2057.621094,3737.477295 
	C2006.568237,3737.477295 1956.135864,3737.477295 1905.844727,3737.477295 
	C1903.512085,3729.332275 1903.243286,3553.234863 1905.579468,3543.122559 
	C1954.147705,3543.122559 2002.887573,3543.122559 2052.416016,3543.122559 
	C2052.416016,3550.154785 2052.416016,3556.548096 2052.416016,3564.260498 
	C2012.069824,3564.260498 1972.590698,3564.260498 1933.105225,3564.260498 
	C1930.191528,3571.858398 1931.868530,3578.559326 1931.353027,3586.051758 
z"/>
<path fill="#8A99AC" opacity="1.000000" stroke="none" 
	d="
M1075.583740,3705.751953 
	C1081.956055,3698.496826 1088.209717,3692.016846 1093.435303,3684.793213 
	C1096.607422,3680.407715 1099.388428,3679.033691 1104.115967,3681.681152 
	C1108.671875,3684.233154 1113.337036,3686.589600 1118.573364,3689.359375 
	C1112.693237,3703.005371 1104.373291,3713.500244 1093.479858,3722.020264 
	C1074.126343,3737.157715 1051.546509,3741.986816 1027.731323,3740.880615 
	C1017.253052,3740.393799 1006.574951,3738.069580 996.568298,3734.801514 
	C973.066528,3727.126465 956.818298,3711.088379 947.609680,3688.160889 
	C937.237488,3662.336426 935.764526,3635.681396 941.807190,3608.719238 
	C950.953857,3567.906494 982.362915,3542.095459 1024.198120,3540.126953 
	C1039.941895,3539.385986 1055.365723,3540.456055 1070.640625,3544.829590 
	C1090.188477,3550.427246 1111.704102,3570.395508 1115.926514,3587.910889 
	C1108.954468,3591.859863 1101.132202,3593.902344 1092.830566,3595.816406 
	C1090.022095,3591.840820 1087.321899,3588.113281 1084.721924,3584.316650 
	C1079.889038,3577.260498 1073.436523,3572.222412 1065.786987,3568.504150 
	C1043.164185,3557.507324 1006.077393,3558.855469 985.884705,3580.522949 
	C978.666931,3588.267334 973.428406,3597.121094 970.651367,3607.132812 
	C963.878601,3631.549316 963.743164,3656.028076 974.171570,3679.467529 
	C984.604614,3702.917725 1002.848633,3716.326904 1028.949829,3718.350586 
	C1045.783203,3719.655762 1061.516968,3717.272705 1075.583740,3705.751953 
z"/>
<path fill="#8A99AC" opacity="1.000000" stroke="none" 
	d="
M2300.649414,3563.358887 
	C2307.986328,3570.400635 2313.012695,3578.052002 2316.077881,3587.561279 
	C2308.848633,3592.411621 2300.663086,3593.484863 2292.806885,3596.256104 
	C2291.448486,3594.260986 2290.429443,3593.005859 2289.668701,3591.609863 
	C2279.086426,3572.196533 2261.894531,3563.614746 2240.650391,3562.087891 
	C2227.906494,3561.172119 2215.341309,3562.317383 2203.565430,3567.944092 
	C2186.951660,3575.881348 2176.049316,3589.077637 2170.907471,3606.375000 
	C2163.370605,3631.729492 2163.545166,3657.350830 2175.075195,3681.466309 
	C2185.529297,3703.331787 2203.335693,3715.928711 2228.193848,3718.387939 
	C2256.896484,3721.227295 2277.886719,3709.796387 2292.989258,3685.956299 
	C2297.493164,3678.846436 2297.862549,3678.773926 2305.724609,3682.499023 
	C2309.861084,3684.458252 2313.835693,3686.759521 2318.565186,3689.268066 
	C2312.844727,3702.867920 2304.538818,3713.352295 2293.668945,3721.894287 
	C2274.343262,3737.080566 2251.797363,3741.567627 2227.937988,3741.083008 
	C2214.142578,3740.802734 2200.895508,3737.637939 2188.378662,3731.680420 
	C2169.507080,3722.697510 2156.006104,3708.611328 2148.158447,3689.210205 
	C2136.625488,3660.697998 2135.382568,3631.568604 2143.664795,3602.092041 
	C2154.188477,3564.637451 2182.854980,3544.960938 2218.192627,3540.664551 
	C2234.044922,3538.737305 2250.014160,3539.283691 2265.773438,3543.553223 
	C2278.998047,3547.135498 2290.541504,3553.111572 2300.649414,3563.358887 
z"/>
<path fill="#8A99AC" opacity="1.000000" stroke="none" 
	d="
M2773.005127,3615.064697 
	C2763.250244,3591.012695 2753.789795,3567.671631 2743.629639,3542.604248 
	C2753.300781,3542.604248 2761.179688,3542.173096 2768.949951,3542.900391 
	C2770.951904,3543.087646 2773.305908,3546.636719 2774.318359,3549.122070 
	C2781.606445,3567.011963 2788.722900,3584.974854 2795.642578,3603.010742 
	C2808.525635,3636.590332 2821.231934,3670.237305 2834.039551,3703.845703 
	C2834.729980,3705.657715 2835.677979,3707.371338 2837.339355,3710.901855 
	C2839.254395,3707.023926 2840.683105,3704.627197 2841.668457,3702.060791 
	C2861.003906,3651.693359 2880.265137,3601.297852 2899.604736,3550.932129 
	C2902.860107,3542.454102 2902.996338,3542.476807 2911.748779,3542.388428 
	C2917.365479,3542.331787 2922.982910,3542.377930 2930.318848,3542.377930 
	C2929.008057,3546.654541 2928.320557,3549.716797 2927.152832,3552.583496 
	C2909.058838,3597.002441 2890.900391,3641.395020 2872.762695,3685.795898 
	C2866.716553,3700.596680 2860.512695,3715.336426 2854.739258,3730.242676 
	C2852.524658,3735.959961 2849.371826,3738.519287 2842.947754,3738.314453 
	C2818.740967,3737.541992 2825.029053,3741.755127 2816.079590,3720.272461 
	C2801.606201,3685.529297 2787.538574,3650.616699 2773.005127,3615.064697 
z"/>
<path fill="#8997AA" opacity="1.000000" stroke="none" 
	d="
M2457.467773,3736.593506 
	C2456.663330,3731.913086 2456.244629,3727.936768 2456.240967,3723.959961 
	C2456.195801,3675.298096 2456.211426,3626.636230 2456.211426,3577.974365 
	C2456.211426,3574.051025 2456.211426,3570.127686 2456.211426,3565.336182 
	C2433.637207,3563.054443 2412.041016,3565.260742 2390.503662,3563.917480 
	C2387.500488,3557.025879 2388.444824,3550.603760 2389.554932,3544.297363 
	C2396.955322,3541.983887 2534.806641,3541.251953 2548.877441,3543.413330 
	C2551.184570,3549.610596 2550.178955,3556.058350 2549.303223,3563.537842 
	C2545.947754,3563.803955 2542.756592,3564.258789 2539.562988,3564.275879 
	C2524.898193,3564.354736 2510.232666,3564.264648 2495.567871,3564.346436 
	C2491.995850,3564.366455 2488.426270,3564.808838 2483.638916,3565.141846 
	C2483.638916,3622.776123 2483.638916,3679.591309 2483.638916,3736.771484 
	C2474.325439,3738.884033 2466.210449,3738.755615 2457.467773,3736.593506 
z"/>
<path fill="#8B99AC" opacity="1.000000" stroke="none" 
	d="
M1480.705811,3699.998535 
	C1480.706665,3647.436035 1480.706665,3595.873291 1480.706665,3544.722412 
	C1488.793335,3541.937744 1495.487549,3541.676514 1507.254639,3543.560059 
	C1507.476074,3547.130371 1507.917725,3550.969727 1507.921387,3554.809570 
	C1507.968018,3604.113770 1507.952026,3653.418213 1507.952026,3702.722412 
	C1507.952026,3706.646973 1507.952026,3710.571777 1507.952026,3715.933105 
	C1541.154419,3716.765625 1573.291748,3715.769775 1605.315186,3716.497803 
	C1608.490601,3723.673584 1607.405884,3730.124512 1606.621216,3736.438721 
	C1598.923828,3738.538330 1496.071899,3739.158691 1482.292358,3737.266357 
	C1479.287231,3731.524414 1481.049194,3725.124756 1480.764404,3718.984863 
	C1480.486816,3713.001221 1480.704712,3706.994629 1480.705811,3699.998535 
z"/>
<path fill="#8997AA" opacity="1.000000" stroke="none" 
	d="
M1692.151611,3696.000000 
	C1692.151855,3644.750732 1692.151855,3594.501709 1692.151855,3543.785400 
	C1701.023804,3541.347168 1709.180542,3542.411865 1718.475098,3542.900146 
	C1718.816040,3547.330811 1719.409546,3551.494629 1719.415039,3555.658936 
	C1719.479980,3604.618652 1719.456909,3653.578125 1719.456909,3702.537842 
	C1719.456909,3706.470459 1719.456909,3710.403076 1719.456909,3715.402832 
	C1723.996338,3715.724609 1727.513916,3716.180908 1731.032593,3716.189697 
	C1756.011719,3716.252930 1780.991333,3716.202881 1805.970703,3716.249023 
	C1809.538208,3716.255615 1813.105347,3716.587402 1817.377197,3716.804443 
	C1817.377197,3723.802246 1817.377197,3729.969238 1817.377197,3736.117676 
	C1810.671387,3738.638916 1710.795044,3739.631348 1693.710815,3737.307373 
	C1690.586670,3730.857178 1692.572266,3723.790039 1692.224976,3716.979736 
	C1691.886108,3710.335693 1692.151367,3703.660889 1692.151611,3696.000000 
z"/>
<path fill="#8896AA" opacity="1.000000" stroke="none" 
	d="
M2663.484863,3664.000000 
	C2663.484131,3688.906250 2663.484131,3712.812500 2663.484131,3737.459961 
	C2654.059326,3737.459961 2645.947998,3737.459961 2637.946777,3737.459961 
	C2635.684570,3729.553711 2635.362061,3553.589355 2637.647217,3543.100098 
	C2645.591309,3543.100098 2653.709229,3543.100098 2663.042969,3543.100098 
	C2663.957275,3563.277344 2663.353760,3583.157471 2663.461670,3603.013672 
	C2663.570557,3623.008545 2663.485596,3643.004395 2663.484863,3664.000000 
z"/>
<path fill="#1F3B5F" opacity="1.000000" stroke="none" 
	d="
M2423.926270,1363.645508 
	C2445.251709,1369.054077 2464.617676,1376.768311 2481.647461,1389.688721 
	C2506.526611,1408.564209 2521.807373,1433.738281 2530.230469,1463.424805 
	C2538.892578,1493.953369 2539.883301,1525.200317 2538.506348,1556.604126 
	C2536.719971,1597.338745 2531.394775,1637.531494 2519.375000,1676.661987 
	C2492.752686,1763.330078 2439.359863,1827.455322 2358.395996,1868.569580 
	C2304.798096,1895.786865 2247.384766,1909.463257 2188.242920,1917.155151 
	C2130.534424,1924.661011 2072.589355,1925.537354 2014.619995,1921.942627 
	C1949.121338,1917.880981 1884.861206,1906.925659 1823.765015,1881.888062 
	C1750.317017,1851.789062 1692.449585,1803.872070 1655.968262,1732.216187 
	C1638.436401,1697.780518 1627.568726,1661.132202 1621.239990,1623.146851 
	C1615.364868,1587.884521 1613.015381,1552.317261 1614.537720,1516.581177 
	C1615.709595,1489.068115 1620.613525,1462.261597 1632.671631,1437.236694 
	C1649.873535,1401.536865 1678.298218,1379.015381 1715.815918,1367.387451 
	C1741.557129,1359.409546 1767.980591,1356.775024 1794.788696,1357.383057 
	C1846.111938,1358.546753 1895.908569,1368.975342 1945.258423,1382.220093 
	C1986.803589,1393.370239 2027.395264,1407.395752 2067.610840,1422.530518 
	C2074.011719,1424.939575 2079.390381,1424.813232 2085.700439,1422.374634 
	C2136.706543,1402.662720 2188.689941,1385.965942 2241.911377,1373.310791 
	C2280.577393,1364.116821 2319.768311,1358.448730 2359.545410,1357.394165 
	C2380.962158,1356.826416 2402.103271,1359.510620 2423.926270,1363.645508 
z"/>
<path fill="#203C60" opacity="1.000000" stroke="none" 
	d="
M2483.755859,2923.759277 
	C2514.041260,2929.154053 2531.887939,2949.274658 2532.488525,2978.863037 
	C2532.720703,2990.301514 2531.890869,3001.575928 2527.507568,3012.182861 
	C2520.801025,3028.411621 2508.294434,3038.443359 2491.412842,3042.255615 
	C2481.092773,3044.586426 2470.402588,3046.147461 2459.842285,3046.376221 
	C2433.225098,3046.953369 2406.586914,3046.588379 2379.957275,3046.567383 
	C2378.332275,3046.565918 2376.707275,3046.270508 2375.194580,3046.123047 
	C2373.120850,3038.653564 2372.729736,2933.460938 2374.763428,2922.177734 
	C2376.101807,2921.920898 2377.663330,2921.353760 2379.221680,2921.362061 
	C2409.840332,2921.527588 2440.459717,2921.703857 2471.076660,2922.047363 
	C2475.027100,2922.091553 2478.966797,2923.070557 2483.755859,2923.759277 
z"/>
<path fill="#233E63" opacity="1.000000" stroke="none" 
	d="
M2033.729126,3011.671875 
	C2044.966675,2981.710205 2055.935791,2952.477295 2067.115234,2922.683838 
	C2086.838379,2974.222656 2106.427002,3025.409424 2126.279541,3077.286621 
	C2086.700439,3077.286621 2048.322998,3077.286621 2008.272339,3077.286621 
	C2016.945923,3054.943115 2025.203369,3033.671875 2033.729126,3011.671875 
z"/>
<path fill="#233E63" opacity="1.000000" stroke="none" 
	d="
M1299.532471,3034.496094 
	C1305.112671,3048.814453 1310.386963,3062.419678 1315.679199,3076.071289 
	C1308.150146,3078.247803 1213.875244,3078.955322 1198.333252,3077.007080 
	C1217.834106,3025.664062 1237.264160,2974.507324 1257.121948,2922.224365 
	C1264.095215,2941.207520 1270.713867,2959.624023 1277.625244,2977.929932 
	C1284.675781,2996.604248 1292.014282,3015.169922 1299.532471,3034.496094 
z"/>
<path fill="#1F3B60" opacity="1.000000" stroke="none" 
	d="
M1251.661743,3573.392578 
	C1277.940552,3558.224854 1303.992676,3557.617920 1330.422607,3570.870605 
	C1340.004272,3575.674561 1347.519043,3583.069824 1351.991089,3592.443115 
	C1367.584229,3625.125488 1367.603271,3658.089355 1350.571411,3690.272705 
	C1343.219116,3704.165527 1330.783081,3712.503662 1315.464478,3716.210938 
	C1297.846313,3720.474854 1280.213745,3720.021240 1263.495117,3713.145752 
	C1245.854736,3705.891113 1234.791138,3691.757324 1228.996704,3673.863037 
	C1221.615356,3651.067383 1221.455933,3628.051025 1228.867676,3605.131104 
	C1232.991211,3592.379883 1240.668701,3582.125244 1251.661743,3573.392578 
z"/>
</svg>